<?xml version="1.0" encoding="UTF-8"?>
<svg version="1.1" xmlns="http://www.w3.org/2000/svg" width="2032" height="439">
<path d="M0 0 C1.86159488 1.6142501 3.69027165 3.24893214 5.484375 4.9375 C4.97430902 9.1099031 3.88932889 11.01774151 0.88671875 13.92578125 C-0.19125977 14.98442383 -0.19125977 14.98442383 -1.29101562 16.06445312 C-2.04576172 16.78568359 -2.80050781 17.50691406 -3.578125 18.25 C-4.33673828 18.99056641 -5.09535156 19.73113281 -5.87695312 20.49414062 C-7.74781659 22.31793834 -9.62736992 24.13174304 -11.515625 25.9375 C-14.82258002 24.66411088 -17.35300134 23.45538815 -20.078125 21.1875 C-30.30012086 13.32886033 -42.65375424 8.74136692 -55.515625 7.9375 C-56.299375 7.88464844 -57.083125 7.83179688 -57.890625 7.77734375 C-76.74624882 7.13198758 -93.68800881 13.66871297 -107.88671875 25.99609375 C-121.54347704 38.91589375 -129.29336173 56.45427574 -129.92041016 75.16967773 C-130.13719984 92.26855938 -126.22792601 109.57557822 -114.578125 122.6875 C-113.99160156 123.28046875 -113.40507813 123.8734375 -112.80078125 124.484375 C-111.515625 125.9375 -111.515625 125.9375 -111.515625 127.9375 C-110.91234375 128.21335938 -110.3090625 128.48921875 -109.6875 128.7734375 C-107.515625 129.9375 -107.515625 129.9375 -104.765625 132.5625 C-90.86169552 144.7847447 -71.47640284 148.94633005 -53.515625 147.9375 C-39.68064693 146.34917437 -28.65695104 142.36823509 -17.515625 133.9375 C-16.608125 133.298125 -15.700625 132.65875 -14.765625 132 C-8.32131423 126.09271513 -4.81141955 118.9262194 -1.515625 110.9375 C-1.18046875 110.18855469 -0.8453125 109.43960938 -0.5 108.66796875 C0.39314412 106.19055709 0.9891023 103.83543723 1.54589844 101.2668457 C1.72264099 100.45617142 1.89938354 99.64549713 2.08148193 98.81025696 C2.21443665 98.19224716 2.34739136 97.57423737 2.484375 96.9375 C1.69732681 96.93972061 0.91027863 96.94194122 0.09938049 96.94422913 C-7.3025283 96.96423113 -14.70442408 96.97947366 -22.10635281 96.98931217 C-25.91214077 96.9945402 -29.71790648 97.00163638 -33.52368164 97.01293945 C-37.19355044 97.0237712 -40.86339778 97.02977744 -44.53328133 97.03237724 C-45.93637492 97.03423097 -47.33946729 97.0378506 -48.7425518 97.04323006 C-50.7013218 97.05044419 -52.6601132 97.05090809 -54.61889648 97.05102539 C-55.73586411 97.053246 -56.85283173 97.05546661 -58.00364685 97.05775452 C-60.515625 96.9375 -60.515625 96.9375 -61.515625 95.9375 C-61.61536889 94.03465013 -61.6464313 92.12811747 -61.6484375 90.22265625 C-61.64972656 89.06185547 -61.65101563 87.90105469 -61.65234375 86.70507812 C-61.64847656 85.48240234 -61.64460938 84.25972656 -61.640625 83 C-61.64449219 81.78119141 -61.64835937 80.56238281 -61.65234375 79.30664062 C-61.65105469 78.14455078 -61.64976562 76.98246094 -61.6484375 75.78515625 C-61.64730957 74.71273682 -61.64618164 73.64031738 -61.64501953 72.53540039 C-61.515625 69.9375 -61.515625 69.9375 -60.515625 67.9375 C-30.815625 67.9375 -1.115625 67.9375 29.484375 67.9375 C34.84493564 89.37974254 30.1612944 116.71228928 18.92578125 135.55078125 C3.88370677 157.88808816 -16.1105208 169.97302795 -41.8828125 175.68359375 C-67.33993824 180.2861913 -93.63810594 174.93657082 -115.41015625 161.09765625 C-139.0979856 144.52634215 -154.07763086 121.68997069 -159.765625 93.25 C-163.62688907 66.84730244 -156.86486311 40.26479848 -141.1796875 18.73046875 C-139.03327982 16.05295336 -136.8206142 13.47900861 -134.515625 10.9375 C-133.9896875 10.33035156 -133.46375 9.72320312 -132.921875 9.09765625 C-98.95215975 -27.73175442 -38.33586973 -31.43065096 0 0 Z " fill="#4A8AF4" transform="translate(212.515625,127.0625)"/>
<path d="M0 0 C1.92578125 1.5859375 1.92578125 1.5859375 3.92578125 3.5859375 C4.25578125 0.2859375 4.58578125 -3.0140625 4.92578125 -6.4140625 C9.23826734 -6.44292787 13.55072887 -6.46081505 17.86328125 -6.4765625 C19.09498047 -6.48494141 20.32667969 -6.49332031 21.59570312 -6.50195312 C22.76552734 -6.50517578 23.93535156 -6.50839844 25.140625 -6.51171875 C26.76665649 -6.51957397 26.76665649 -6.51957397 28.42553711 -6.52758789 C30.92578125 -6.4140625 30.92578125 -6.4140625 31.92578125 -5.4140625 C32.02590255 -3.90438294 32.05653589 -2.3900377 32.05949402 -0.87704468 C32.06589149 0.59442772 32.06589149 0.59442772 32.07241821 2.09562683 C32.07173843 3.72399223 32.07173843 3.72399223 32.07104492 5.38525391 C32.07440353 6.52198044 32.07776215 7.65870697 32.08122253 8.82987976 C32.09077613 12.6157641 32.09267865 16.40160433 32.09375 20.1875 C32.0969624 22.81814594 32.10032646 25.4487917 32.10383606 28.07943726 C32.11024452 33.61285692 32.11171764 39.14626463 32.11108398 44.6796875 C32.11048685 51.04203074 32.12096182 57.40428819 32.13682765 63.76660979 C32.15158971 69.90843391 32.15506884 76.05021765 32.15447426 82.19205856 C32.1556482 84.79212161 32.16003678 87.39218539 32.16780663 89.99223709 C32.23475878 114.73788747 32.16341125 140.48574484 14.23828125 159.8984375 C0.47770255 172.60254182 -15.51327704 175.51747038 -33.55859375 174.96875 C-50.1936594 174.06848607 -63.72348212 166.57118735 -75.07421875 154.5859375 C-85.07421875 142.17717838 -85.07421875 142.17717838 -85.07421875 135.5859375 C-81.49852499 134.04667542 -77.91262067 132.53280906 -74.32421875 131.0234375 C-73.3084375 130.58580078 -72.29265625 130.14816406 -71.24609375 129.69726562 C-70.26640625 129.28798828 -69.28671875 128.87871094 -68.27734375 128.45703125 C-66.92624512 127.88359985 -66.92624512 127.88359985 -65.54785156 127.29858398 C-62.86413552 126.52541313 -61.62733041 126.50701339 -59.07421875 127.5859375 C-57.6875 129.625 -57.6875 129.625 -56.38671875 132.2109375 C-52.40410257 139.22315088 -46.28154027 144.64166643 -38.5 147.15234375 C-27.51357452 149.11610096 -17.09102323 148.20811699 -7.82421875 141.8984375 C-0.52619598 136.02512834 2.36559662 128.40256236 3.55078125 119.2734375 C4.03189135 114.37793123 4.01811268 109.50002122 3.92578125 104.5859375 C3.10787109 105.38257813 3.10787109 105.38257813 2.2734375 106.1953125 C-7.71906371 115.55580936 -18.3319686 119.15132559 -31.984375 118.82421875 C-46.58731366 117.69807557 -62.256772 110.58147786 -72.07421875 99.5859375 C-84.74695212 84.41565813 -90.07939665 66.76016372 -88.859375 47.12890625 C-86.62989443 29.56909261 -78.04056368 12.64172891 -64.07421875 1.5859375 C-44.7952993 -12.18551639 -19.57299331 -14.6717364 0 0 Z M-52.53515625 28.10546875 C-59.99261762 37.39339791 -61.14840535 49.16770386 -60.30175781 60.62939453 C-59.18974761 70.19125047 -53.96345376 78.69670249 -47.26171875 85.3984375 C-39.18169519 90.94355171 -31.39948204 93.37307572 -21.63671875 91.9609375 C-11.17746857 89.7392485 -4.29920106 84.21376298 1.92578125 75.5859375 C7.66559027 66.00415953 7.44885996 52.92751916 5.23046875 42.234375 C4.32211395 39.52457706 3.26626401 37.1077207 1.92578125 34.5859375 C1.51328125 33.78929687 1.10078125 32.99265625 0.67578125 32.171875 C-3.59895917 24.90967395 -9.79707502 20.37456124 -17.51171875 17.1484375 C-31.05466238 15.01007798 -42.87598464 18.05889721 -52.53515625 28.10546875 Z " fill="#4989F4" transform="translate(629.07421875,183.4140625)"/>
<path d="M0 0 C7.59 0 15.18 0 23 0 C24.38058594 2.5059375 24.38058594 2.5059375 25.7890625 5.0625 C32.65184356 17.48591686 39.6041679 29.83984402 46.79736328 42.07617188 C51.55380545 50.1857788 56.15314972 58.3766396 60.71948242 66.59448242 C65.58824321 75.33125291 70.62017883 83.96721232 75.734375 92.5625 C76.29382812 93.50996094 76.85328125 94.45742187 77.4296875 95.43359375 C77.92710449 96.26947021 78.42452148 97.10534668 78.93701172 97.96655273 C80 100 80 100 80 102 C82.98885268 99.22262654 85.01050908 96.56071009 86.9609375 92.984375 C87.5075 91.99308594 88.0540625 91.00179687 88.6171875 89.98046875 C89.19726562 88.91441406 89.77734375 87.84835938 90.375 86.75 C91.6309504 84.47293027 92.88881161 82.19691359 94.1484375 79.921875 C94.46866882 79.34256226 94.78890015 78.76324951 95.11883545 78.16638184 C98.32026967 72.38957881 101.65058659 66.691826 105 61 C109.15797576 53.92017204 113.25720392 46.81414761 117.24780273 39.63842773 C118.41041641 37.55602578 119.58433479 35.47989285 120.76977539 33.41040039 C123.82410915 28.05739641 126.63446561 22.70297188 129.18359375 17.08984375 C129.72951172 15.97480469 130.27542969 14.85976562 130.83789062 13.7109375 C132.4616302 10.4885155 132.4616302 10.4885155 133.71289062 7.26171875 C135.52230022 3.70537585 136.63935931 2.22508511 140 0 C143.9462441 -0.5411614 147.8274773 -0.41092399 151.80102539 -0.27319336 C152.87628731 -0.25347221 153.95154922 -0.23375107 155.05939484 -0.21343231 C157.70735247 -0.16203216 160.35312767 -0.09022655 163 0 C163.02332676 22.01759046 163.04097808 44.0351789 163.05181217 66.0527792 C163.0569756 76.27518056 163.0640192 86.49757426 163.07543945 96.7199707 C163.08538485 105.62642788 163.09185308 114.53287951 163.09408849 123.43934208 C163.09539585 128.15828803 163.09848324 132.8772181 163.10573006 137.59615898 C163.11248801 142.03246139 163.11461742 146.4687413 163.11310768 150.90504837 C163.11338411 152.53815012 163.11539057 154.17125258 163.11920547 155.8043499 C163.12413922 158.0242121 163.12299949 160.24398796 163.12025452 162.46385193 C163.12163721 164.33186541 163.12163721 164.33186541 163.12304783 166.23761654 C163 169 163 169 162 170 C160.45044441 170.09899523 158.89646327 170.13079524 157.34375 170.1328125 C155.93416016 170.13474609 155.93416016 170.13474609 154.49609375 170.13671875 C153.50738281 170.13285156 152.51867188 170.12898437 151.5 170.125 C150.51128906 170.12886719 149.52257813 170.13273438 148.50390625 170.13671875 C147.56417969 170.13542969 146.62445312 170.13414062 145.65625 170.1328125 C144.78806641 170.13168457 143.91988281 170.13055664 143.02539062 170.12939453 C141 170 141 170 140 169 C139.90396978 167.3804366 139.87812145 165.75666917 139.87974548 164.13426208 C139.87768349 162.5545462 139.87768349 162.5545462 139.87557983 160.94291687 C139.87917511 159.77766983 139.88277039 158.61242279 139.88647461 157.41186523 C139.88632858 156.19252289 139.88618256 154.97318054 139.8860321 153.71688843 C139.88661107 150.36372489 139.89164032 147.01062226 139.89860606 143.65746951 C139.90484017 140.15674438 139.90544344 136.65601852 139.90663147 133.1552887 C139.90974462 126.52190344 139.91795778 119.88853459 139.92798096 113.25515658 C139.93914261 105.70509793 139.94465268 98.15503851 139.94967639 90.60497367 C139.96014041 75.06997294 139.97773953 59.53498858 140 44 C137.74941784 47.85218574 135.49986378 51.70497089 133.25048828 55.55786133 C132.61633499 56.64327461 131.9821817 57.7286879 131.32881165 58.84699249 C127.10263879 66.08737672 122.93691735 73.35357278 118.875 80.6875 C117.71034446 82.77773898 116.54496744 84.8675761 115.37890625 86.95703125 C114.81445801 87.96846191 114.25000977 88.97989258 113.66845703 90.02197266 C109.17163036 98.04835424 104.58686024 106.02484074 100 114 C99.22269531 115.35303223 99.22269531 115.35303223 98.4296875 116.73339844 C96.89280193 119.4068601 95.35324847 122.07876303 93.8125 124.75 C93.34239502 125.56710449 92.87229004 126.38420898 92.38793945 127.22607422 C91.95698975 127.97131348 91.52604004 128.71655273 91.08203125 129.484375 C90.51319214 130.47002441 90.51319214 130.47002441 89.93286133 131.47558594 C89 133 89 133 88 134 C85.26953125 134.4140625 85.26953125 134.4140625 81.8125 134.625 C80.12060547 134.76808594 80.12060547 134.76808594 78.39453125 134.9140625 C73.84146164 133.68803455 72.88019917 131.70343509 70.5300293 127.75976562 C69.77266479 126.39368164 69.77266479 126.39368164 69 125 C68.45577393 124.04802734 67.91154785 123.09605469 67.35083008 122.11523438 C65.53808509 118.9046576 63.76629606 115.67384625 62 112.4375 C60.67029137 110.01752328 59.33619141 107.59999643 58 105.18359375 C57.66444092 104.57671722 57.32888184 103.9698407 56.9831543 103.34457397 C53.74631643 97.50952659 50.38583102 91.74972504 47 86 C41.80652228 77.16393678 36.73720829 68.26603697 31.75 59.3125 C31.42322266 58.72815186 31.09644531 58.14380371 30.75976562 57.54174805 C29.83129068 55.87995681 28.90773659 54.21541912 27.984375 52.55078125 C27.45553711 51.59856689 26.92669922 50.64635254 26.38183594 49.6652832 C25.0799395 47.15418719 23.99903256 44.64419811 23 42 C22.34 42 21.68 42 21 42 C21.33 42.99 21.66 43.98 22 45 C22.1454721 46.41490091 22.24408779 47.83492636 22.31173706 49.25567627 C22.35302797 50.11350079 22.39431889 50.9713253 22.43686104 51.8551445 C22.49494344 53.25184309 22.49494344 53.25184309 22.55419922 54.67675781 C22.59630964 55.6542461 22.63842007 56.63173439 22.68180656 57.63884354 C23.1252923 68.81577266 23.14497682 79.98781152 23.1328125 91.171875 C23.1334883 93.40008556 23.1344606 95.62829604 23.13571167 97.85650635 C23.13716956 102.47156493 23.13509236 107.08660389 23.13037109 111.70166016 C23.12460734 117.62422576 23.12800618 123.5467467 23.13394356 129.46931076 C23.13754416 134.04504743 23.13641407 138.62077334 23.13381577 143.19651031 C23.13314855 145.38306941 23.13396774 147.56962948 23.13629532 149.75618744 C23.13882076 152.78768041 23.13498587 155.81909858 23.12939453 158.85058594 C23.13141876 159.75325699 23.13344299 160.65592804 23.13552856 161.58595276 C23.11427819 167.77144362 23.11427819 167.77144362 22 170 C14.74 170 7.48 170 0 170 C0 113.9 0 57.8 0 0 Z " fill="#666A6F" transform="translate(1486,119)"/>
<path d="M0 0 C90.92784993 0 90.92784993 0 116 25 C116.65871094 25.63550781 117.31742188 26.27101562 117.99609375 26.92578125 C127.41830405 36.73967697 133.16613445 49.87967223 136 63 C136.22300781 63.93585938 136.44601562 64.87171875 136.67578125 65.8359375 C141.55938231 89.55628549 137.20265774 114.62029462 124.171875 134.92578125 C120.81902254 139.67163537 117.10122448 143.89149093 113 148 C112.38769531 148.62390625 111.77539062 149.2478125 111.14453125 149.890625 C81.9007363 177.57558227 35.8419577 170 0 170 C0 113.9 0 57.8 0 0 Z M22 22 C22 63.58 22 105.16 22 148 C64.53715597 149.69537535 64.53715597 149.69537535 98.95703125 131.26953125 C111.88642587 118.04827671 115.3393216 99.43190834 115.1484375 81.6796875 C114.41775803 63.56652789 109.05514148 48.5136686 95.875 35.75 C74.74467109 18.09910775 48.5392976 22 22 22 Z " fill="#65696F" transform="translate(926,119)"/>
<path d="M0 0 C7.26 0 14.52 0 22 0 C22 56.1 22 112.2 22 170 C15.07 170 8.14 170 1 170 C1 165.05 1 160.1 1 155 C-1.475 157.475 -1.475 157.475 -4 160 C-16.47640096 170.77405541 -29.44997782 175.09791302 -46 174 C-61.68674283 171.63294673 -73.80343416 163.10787482 -83.3125 150.625 C-94.2047543 134.76974273 -96.80792169 116.84907685 -94.375 97.9375 C-91.2735261 81.91321819 -82.15091665 67.61864565 -69 58 C-61.46861502 53.47251225 -53.85001767 49.79018015 -45 49 C-44.1646875 48.91878906 -43.329375 48.83757812 -42.46875 48.75390625 C-30.55369257 48.17567552 -18.50946736 51.84580364 -9 59 C-7.54334049 60.37162157 -6.11408991 61.77298066 -4.71484375 63.203125 C-4.01351318 63.91629883 -3.31218262 64.62947266 -2.58959961 65.36425781 C-2.06503174 65.90405273 -1.54046387 66.44384766 -1 67 C-1.00222061 66.17536758 -1.00444122 65.35073517 -1.00672913 64.50111389 C-1.02673052 56.74601743 -1.04197335 48.99093339 -1.05181217 41.23581791 C-1.05704036 37.248428 -1.06413684 33.26105933 -1.07543945 29.27368164 C-1.08627061 25.42874886 -1.09227732 21.58383655 -1.09487724 17.73888969 C-1.09673108 16.26881017 -1.10035091 14.79873182 -1.10573006 13.32866096 C-1.11294355 11.27645533 -1.11399081 9.22433533 -1.11352539 7.17211914 C-1.115746 6.00185684 -1.11796661 4.83159454 -1.12025452 3.62586975 C-1 1 -1 1 0 0 Z M-54 75 C-54.69222656 75.42410156 -55.38445312 75.84820312 -56.09765625 76.28515625 C-64.33222515 81.81078286 -69.38184998 90.54481572 -72 100 C-74.43926048 113.9767845 -72.37587419 127.48447468 -64.25 139.1875 C-57.80968124 147.26600457 -49.30024499 152.06358114 -39.015625 153.3828125 C-29.23425105 153.76291771 -20.43082188 150.99219344 -12.84375 144.7421875 C-3.7540143 136.15315758 0.36476973 125.48118762 1.09375 113.015625 C0.75875709 102.24001971 -1.51339965 92.75864486 -8 84 C-8.598125 83.0925 -9.19625 82.185 -9.8125 81.25 C-16.41536983 74.45847675 -24.01407711 70.80522248 -33.47119141 70.61962891 C-44.27367523 70.63228297 -44.27367523 70.63228297 -54 75 Z " fill="#666A70" transform="translate(1955,119)"/>
<path d="M0 0 C13.9215778 10.62763306 22.42141254 24.95710016 26 42 C26.40755871 45.78311534 26.47782768 49.50976107 26.4375 53.3125 C26.43065186 54.31434326 26.42380371 55.31618652 26.41674805 56.34838867 C26.00537806 75.44858982 17.74435938 90.98760925 4.1640625 104.1484375 C-7.2614794 113.92408165 -20.30812779 116.67291018 -35 116 C-45.96859549 115.11157794 -56.08496197 110.13275128 -63.72436523 102.35375977 C-64.527285 101.5395607 -65.33020477 100.72536163 -66.15745544 99.88648987 C-66.76549515 99.26394821 -67.37353485 98.64140656 -68 98 C-67.99777939 98.79957626 -67.99555878 99.59915253 -67.99327087 100.42295837 C-67.97326908 107.94259639 -67.95802645 115.46222159 -67.94818783 122.98187923 C-67.94295974 126.84820118 -67.93586346 130.71450121 -67.92456055 134.58081055 C-67.913729 138.30903401 -67.9077226 142.03723634 -67.90512276 145.76547432 C-67.90326899 147.19089656 -67.89964929 148.61631759 -67.89426994 150.04173088 C-67.88705607 152.03163408 -67.88659192 154.02155834 -67.88647461 156.01147461 C-67.884254 157.14620712 -67.88203339 158.28093964 -67.87974548 159.45005798 C-68 162 -68 162 -69 163 C-70.54955559 163.09899523 -72.10353673 163.13079524 -73.65625 163.1328125 C-75.06583984 163.13474609 -75.06583984 163.13474609 -76.50390625 163.13671875 C-77.49261719 163.13285156 -78.48132812 163.12898437 -79.5 163.125 C-80.48871094 163.12886719 -81.47742187 163.13273438 -82.49609375 163.13671875 C-83.43582031 163.13542969 -84.37554688 163.13414062 -85.34375 163.1328125 C-86.21193359 163.13168457 -87.08011719 163.13055664 -87.97460938 163.12939453 C-90 163 -90 163 -91 162 C-91.09911609 159.86336974 -91.12632367 157.72340053 -91.12698364 155.58447266 C-91.12854363 154.90645411 -91.13010362 154.22843555 -91.13171089 153.52987099 C-91.13572291 151.24124652 -91.13253048 148.95268754 -91.12939453 146.6640625 C-91.13074848 145.03008993 -91.13252838 143.39611767 -91.13470459 141.762146 C-91.13927965 137.31185921 -91.13748907 132.8615955 -91.1343255 128.41130829 C-91.13180228 123.76460201 -91.13413934 119.11789776 -91.13571167 114.47119141 C-91.13753348 106.66633752 -91.13512677 98.86149308 -91.13037109 91.05664062 C-91.12492845 82.01972763 -91.1266911 72.9828372 -91.1321975 63.94592476 C-91.13672832 56.20157744 -91.13737933 48.45723693 -91.13475883 40.71288872 C-91.13319588 36.08115138 -91.13300277 31.44942466 -91.13629532 26.81768799 C-91.13917358 22.46426583 -91.13719918 18.1108729 -91.13140106 13.75745392 C-91.13007322 12.15499164 -91.13046798 10.55252693 -91.13266373 8.95006561 C-91.1353743 6.77185243 -91.13199528 4.59373438 -91.12698364 2.41552734 C-91.12660662 1.19360687 -91.12622959 -0.0283136 -91.12584114 -1.28726196 C-91 -4 -91 -4 -90 -5 C-88.52347336 -5.09880797 -87.04232764 -5.13079245 -85.5625 -5.1328125 C-84.66789062 -5.13410156 -83.77328125 -5.13539063 -82.8515625 -5.13671875 C-81.91054687 -5.13285156 -80.96953125 -5.12898437 -80 -5.125 C-78.58847656 -5.13080078 -78.58847656 -5.13080078 -77.1484375 -5.13671875 C-75.80652344 -5.13478516 -75.80652344 -5.13478516 -74.4375 -5.1328125 C-73.61121094 -5.13168457 -72.78492188 -5.13055664 -71.93359375 -5.12939453 C-70 -5 -70 -5 -69 -4 C-68.76518307 -1.81707226 -68.58636677 0.37203174 -68.4375 2.5625 C-68.31181641 4.35880859 -68.31181641 4.35880859 -68.18359375 6.19140625 C-68.12300781 7.11824219 -68.06242187 8.04507813 -68 9 C-67.30777344 8.23816406 -67.30777344 8.23816406 -66.6015625 7.4609375 C-48.91515226 -11.20416738 -21.54012147 -14.64856475 0 0 Z M-62 27 C-69.45218719 39.14077555 -70.97069498 52.70983702 -68.3125 66.58984375 C-65.14256919 76.85249476 -59.36486246 86.04503083 -49.73046875 91.21875 C-39.99522229 95.73926245 -29.6758462 96.57492895 -19.4140625 93.10546875 C-9.95156905 88.77232045 -2.66361681 80.79798173 1.1875 71.234375 C5.80547972 58.53493077 5.38903653 44.67838825 -0.21875 32.3125 C-4.82883285 23.91190459 -11.74631513 16.81738384 -20.94140625 13.6328125 C-36.91215715 10.32851921 -51.70954246 13.51018907 -62 27 Z " fill="#666A70" transform="translate(1434,177)"/>
<path d="M0 0 C6.85878716 7.37436797 12.27310441 15.36884405 15.71484375 24.84375 C16.03324219 25.70742187 16.35164062 26.57109375 16.6796875 27.4609375 C21.93940009 44.57318215 19.44875263 63.69479447 11.65234375 79.53125 C2.48808231 95.4172725 -11.25575424 105.11318412 -28.66796875 110.59375 C-46.62569688 114.97665314 -64.63951859 111.11249269 -80.28515625 101.84375 C-83.85947301 99.4022768 -87.10781088 96.78064761 -90.28515625 93.84375 C-90.90777344 93.27527344 -91.53039062 92.70679688 -92.171875 92.12109375 C-104.32874763 79.69103298 -108.79582533 62.11857392 -108.63500977 45.27197266 C-108.14604474 27.81740299 -101.6463696 12.34363081 -89.28515625 -0.15625 C-64.07191437 -22.25627146 -25.17955989 -23.14795726 0 0 Z M-71.53515625 21.96875 C-78.57380979 30.88960616 -80.83990153 41.52257084 -80.09765625 52.65625 C-78.7463479 62.5658446 -73.95444593 71.35480901 -66.59375 78.1171875 C-57.67114819 84.79026703 -48.1859699 86.09367792 -37.28515625 84.84375 C-27.66943023 82.82218658 -19.93671006 75.99205359 -14.34765625 68.09375 C-9.19236001 58.82889377 -8.26735681 48.10820803 -10.28515625 37.84375 C-13.41118081 26.96303792 -19.01364327 18.88821369 -28.97265625 13.34375 C-44.18094348 6.46745892 -60.09732146 10.03614882 -71.53515625 21.96875 Z " fill="#FBBE12" transform="translate(509.28515625,190.15625)"/>
<path d="M0 0 C13.79226526 11.34363846 22.453028 26.8176118 24.25 44.6875 C25.48192708 61.84648434 21.35157465 77.945618 10.97265625 91.70703125 C8.82429343 94.1565321 6.60631787 96.43907215 4.25 98.6875 C3.71117187 99.24566406 3.17234375 99.80382812 2.6171875 100.37890625 C-9.15995531 111.71218689 -27.1810569 116.14303383 -43.0234375 115.9609375 C-62.61302037 114.52354672 -77.9547929 105.89252892 -90.84375 91.3203125 C-102.1170908 76.63530278 -105.06514157 57.6298472 -102.75 39.6875 C-100.05196607 23.45961945 -91.80645047 9.94660302 -78.875 -0.1875 C-73.43460482 -4.04398266 -68.01676739 -7.03611013 -61.75 -9.3125 C-60.45449219 -9.79009766 -60.45449219 -9.79009766 -59.1328125 -10.27734375 C-39.06889391 -16.4442989 -16.73581707 -12.37244795 0 0 Z M-66.43359375 25.6875 C-73.98833719 36.23776515 -75.99457863 46.9722688 -74.75 59.6875 C-72.61423448 69.8860963 -67.03055109 77.54021838 -58.6875 83.625 C-50.69606446 88.83628251 -42.6730532 90.45948411 -33.25 89.0625 C-24.541602 87.22595238 -17.14773084 82.82435653 -11.75 75.6875 C-4.98701329 64.0545522 -2.74133185 52.74294115 -5.3984375 39.44140625 C-8.7957714 29.20584899 -15.24526968 21.70522565 -24.75 16.6875 C-38.96114025 9.87853262 -56.28556544 13.63230164 -66.43359375 25.6875 Z " fill="#EA493D" transform="translate(362.75,186.3125)"/>
<path d="M0 0 C13.0552577 10.05016027 19.42963814 23.11584499 25.5625 37.97265625 C22.46554421 41.34710264 18.84985335 42.73653317 14.671875 44.421875 C13.87085861 44.75198578 13.06984222 45.08209656 12.24455261 45.42221069 C9.60339854 46.50865587 6.95802869 47.58441247 4.3125 48.66015625 C2.4822235 49.4106951 0.65222994 50.16192427 -1.17749023 50.91381836 C-4.98821324 52.47830031 -8.80071188 54.03833467 -12.61474609 55.59472656 C-18.35745758 57.93848911 -24.09528153 60.29403287 -29.83203125 62.65234375 C-39.03094971 66.43288749 -48.23311333 70.20544707 -57.4375 73.97265625 C-54.55600319 81.48960445 -50.42622096 85.24624839 -43.4375 88.97265625 C-34.77132769 92.74055725 -25.39931738 92.60075519 -16.4375 89.97265625 C-9.40363541 87.15000509 -1.90232171 81.90229966 1.5625 74.97265625 C6.51240507 76.62912055 10.53997483 79.42758509 14.8125 82.34765625 C15.5446875 82.82976562 16.276875 83.311875 17.03125 83.80859375 C17.72734375 84.28296875 18.4234375 84.75734375 19.140625 85.24609375 C19.77387695 85.67325684 20.40712891 86.10041992 21.05957031 86.54052734 C22.8995462 88.2938247 23.28399399 89.46735951 23.5625 91.97265625 C21.72161995 95.03649857 19.0750284 97.44629742 16.5625 99.97265625 C15.61697266 100.97039062 15.61697266 100.97039062 14.65234375 101.98828125 C3.02426574 113.36990674 -12.88198659 118.84288799 -28.9375 119.34765625 C-46.66402023 118.87264596 -61.28677005 112.6662047 -74.1875 100.66015625 C-87.61743739 86.45912198 -92.05100752 68.89769469 -91.67578125 49.9765625 C-91.04608917 33.50220458 -84.7952525 18.19825888 -73.203125 6.375 C-52.88541642 -11.27385703 -22.73723153 -15.56575007 0 0 Z M-56.4375 27.97265625 C-61.42004009 36.0431151 -63.49817071 42.54318742 -63.4375 51.97265625 C-50.91767054 47.43709568 -38.67367495 42.34488879 -26.4375 37.09765625 C-24.58347033 36.30566879 -22.7293044 35.51400024 -20.875 34.72265625 C-16.3942593 32.80964992 -11.91536598 30.89238137 -7.4375 28.97265625 C-10.11598265 23.37774739 -14.3760999 19.63966986 -20.0625 17.09765625 C-33.77201325 12.66066262 -47.31604753 17.19750533 -56.4375 27.97265625 Z " fill="#EA4A3E" transform="translate(822.4375,183.02734375)"/>
<path d="M0 0 C12.84689902 9.87842428 19.59275313 24.20244243 22 40 C22 45.61 22 51.22 22 57 C-22.55 57.495 -22.55 57.495 -68 58 C-66.54314786 69.65481715 -64.04789416 77.8962577 -54.9296875 85.79296875 C-46.4788741 91.92662364 -36.34295906 94.30201323 -26 93 C-14.09321096 90.11696079 -6.96285517 83.79151508 0 74 C5.00600922 74.54681024 8.97181067 76.24140333 13.375 78.5625 C14.01566406 78.89185547 14.65632813 79.22121094 15.31640625 79.56054688 C16.88138632 80.36639482 18.44124021 81.18218493 20 82 C18.89156854 90.66731822 11.01580197 97.67882732 4.59765625 103.1171875 C-9.92518303 113.64351612 -26.95515499 116.93594396 -44.5625 114.3125 C-59.12640956 111.24752629 -72.35158748 103.23210989 -81 91 C-91.58976015 72.8248181 -94.31475402 54.62991764 -90 34 C-85.2780823 17.95285781 -76.31648907 5.26775378 -62.0078125 -3.4609375 C-42.08036989 -13.65757696 -18.72034405 -11.94494338 0 0 Z M-60.23828125 22.671875 C-63.38838577 26.83476257 -67 32.63203528 -67 38 C-45.55 38 -24.1 38 -2 38 C-3.27787305 27.77701563 -6.13966939 23.2797424 -13.64453125 16.54296875 C-20.04443567 12.35065988 -26.33270781 11.44262235 -33.875 11.5 C-35.19999512 11.50966797 -35.19999512 11.50966797 -36.55175781 11.51953125 C-46.69114993 11.80419834 -53.2979772 15.29516238 -60.23828125 22.671875 Z " fill="#676B70" transform="translate(1300,178)"/>
<path d="M0 0 C11.79189445 9.91792022 18.90727063 24.05570772 20.6862793 39.37719727 C20.86737874 41.7525083 20.99827318 44.12416449 21.10546875 46.50390625 C21.15251953 47.31794922 21.19957031 48.13199219 21.24804688 48.97070312 C21.3513279 51.00076791 21.39047389 53.03390187 21.41796875 55.06640625 C19.58439431 56.89998069 17.0216118 56.18640592 14.58203125 56.19082642 C13.74406006 56.18723114 12.90608887 56.18363586 12.04272461 56.17993164 C10.72577354 56.18015068 10.72577354 56.18015068 9.38221741 56.18037415 C6.4657244 56.17967469 3.54929442 56.1718808 0.6328125 56.1640625 C-1.38358017 56.16219843 -3.39997329 56.16077448 -5.41636658 56.15977478 C-10.73468263 56.15594869 -16.05297155 56.14611764 -21.37127686 56.1350708 C-26.79373813 56.12485863 -32.21620377 56.12027758 -37.63867188 56.11523438 C-48.28647028 56.10449545 -58.93424851 56.08741794 -69.58203125 56.06640625 C-69.30243381 57.95695443 -69.01266228 59.84599932 -68.71875 61.734375 C-68.47838013 63.31255005 -68.47838013 63.31255005 -68.2331543 64.92260742 C-66.54700765 73.06378118 -62.27210961 80.10631199 -55.58203125 85.06640625 C-45.42815679 91.02658223 -36.29474303 93.72810901 -24.55078125 91.48828125 C-14.46833605 88.62985606 -6.72699453 82.18702297 -1.58203125 73.06640625 C3.42397797 73.61321649 7.38977942 75.30780958 11.79296875 77.62890625 C12.43363281 77.95826172 13.07429688 78.28761719 13.734375 78.62695312 C15.29935507 79.43280107 16.85920896 80.24859118 18.41796875 81.06640625 C17.32236354 89.39600752 10.93448439 96.10752041 4.73046875 101.37890625 C-9.573542 112.14560368 -26.54181304 115.90111915 -44.109375 113.60546875 C-57.40652729 111.10766114 -67.11599759 105.64767858 -76.58203125 96.06640625 C-77.23042969 95.43992187 -77.87882812 94.8134375 -78.546875 94.16796875 C-90.42341698 81.84962981 -93.08820426 65.1043678 -93.00390625 48.71630859 C-92.57876987 31.5458335 -86.5426049 16.54520233 -74.58203125 4.06640625 C-53.99301571 -14.01639631 -22.35730108 -16.74260822 0 0 Z M-60.58203125 20.94140625 C-64.5016237 25.94391788 -67.58203125 30.6198614 -67.58203125 37.06640625 C-46.46203125 37.06640625 -25.34203125 37.06640625 -3.58203125 37.06640625 C-1.96938467 32.22846652 -4.4212128 28.49192865 -6.58203125 24.06640625 C-10.84640017 17.54443026 -17.90526373 12.68481432 -25.58203125 11.06640625 C-39.00507332 9.670893 -50.84627647 10.59205348 -60.58203125 20.94140625 Z " fill="#676B70" transform="translate(1170.58203125,178.93359375)"/>
<path d="M0 0 C9.55821556 7.64657245 13.15418875 18.1964132 15 30 C15.49184038 36.3891033 15.35156593 42.80460027 15.29296875 49.20703125 C15.28736037 51.02690783 15.28309616 52.84678899 15.28010559 54.66667175 C15.2687545 59.41282067 15.2393734 64.15868585 15.20599365 68.90472412 C15.17508057 73.76521977 15.16155526 78.62576211 15.14648438 83.48632812 C15.11449246 92.99102893 15.06180638 102.49544628 15 112 C7.74 112 0.48 112 -7 112 C-8.49525619 109.00948762 -8.14426277 105.94336032 -8.1418457 102.66381836 C-8.14532013 101.90745087 -8.14879456 101.15108337 -8.15237427 100.37179565 C-8.1597361 98.72558772 -8.1650792 97.07936983 -8.16866493 95.43314934 C-8.17583062 92.82185208 -8.19150056 90.21074272 -8.21000671 87.59950256 C-8.2624524 80.17353996 -8.31039458 72.74767677 -8.32592773 65.3215332 C-8.33604968 60.78026996 -8.36548656 56.23947453 -8.40724754 51.69839668 C-8.41950924 49.97260654 -8.42468768 48.24675014 -8.42244911 46.52091789 C-8.13676242 32.29023601 -8.13676242 32.29023601 -14.72041321 20.14292908 C-21.2931359 13.86479238 -28.59045355 13.54746636 -37.23754883 13.56835938 C-45.8803353 13.78682957 -50.83571075 16.52315461 -56.8125 22.6875 C-63.08300441 30.36923162 -65.08277803 39.27740131 -65.20532227 48.9934082 C-65.22017166 50.01862831 -65.22017166 50.01862831 -65.23532104 51.06455994 C-65.26675406 53.30993254 -65.29162095 55.55532626 -65.31640625 57.80078125 C-65.33699153 59.36305777 -65.3579884 60.92532891 -65.37937927 62.4875946 C-65.43443751 66.58923986 -65.48391808 70.69093401 -65.53222656 74.79266357 C-65.58256061 78.98226243 -65.6381844 83.17179072 -65.69335938 87.36132812 C-65.80074208 95.57416057 -65.90174163 103.78705332 -66 112 C-73.26 112 -80.52 112 -88 112 C-88 73.39 -88 34.78 -88 -5 C-81.4 -5 -74.8 -5 -68 -5 C-67 -4 -67 -4 -66.90234375 -0.83984375 C-66.91394531 0.44792969 -66.92554688 1.73570312 -66.9375 3.0625 C-66.94652344 4.35285156 -66.95554687 5.64320313 -66.96484375 6.97265625 C-66.97644531 7.97167969 -66.98804688 8.97070312 -67 10 C-66.319375 9.29875 -65.63875 8.5975 -64.9375 7.875 C-63.96194298 6.91299239 -62.9824929 5.95492295 -62 5 C-61.5153125 4.51917969 -61.030625 4.03835937 -60.53125 3.54296875 C-44.02752006 -11.78770195 -18.10858609 -13.75992922 0 0 Z " fill="#64686E" transform="translate(1824,177)"/>
<path d="M0 0 C9.24 0 18.48 0 28 0 C28 63.69 28 127.38 28 193 C18.76 193 9.52 193 0 193 C0 129.31 0 65.62 0 0 Z " fill="#39AA58" transform="translate(682,109)"/>
<path d="M0 0 C6.93 0 13.86 0 21 0 C21 38.61 21 77.22 21 117 C13.74 117 6.48 117 -1 117 C-1.02254762 101.89275025 -1.04097952 86.78550907 -1.05181217 71.6782465 C-1.05697498 64.66415366 -1.06401739 57.650072 -1.07543945 50.63598633 C-1.08644688 43.87331932 -1.09227619 37.11066636 -1.09487724 30.34799004 C-1.09673203 27.7614772 -1.10035367 25.17496503 -1.10573006 22.58845711 C-1.11293651 18.97961145 -1.11399111 15.37081453 -1.11352539 11.76196289 C-1.11712067 10.6808725 -1.12071594 9.5997821 -1.12442017 8.4859314 C-1.1230455 7.50851486 -1.12167084 6.53109833 -1.12025452 5.52406311 C-1.12117631 4.66956101 -1.1220981 3.81505892 -1.12304783 2.93466282 C-1 1 -1 1 0 0 Z " fill="#64686E" transform="translate(1684,172)"/>
<path d="M0 0 C4.36872308 2.18436154 7.48211211 4.80352018 10 9 C11.51923438 14.43178319 11.27457795 19.11255586 9.015625 24.27734375 C6.98260768 27.7256539 4.11652537 29.34869353 0.75 31.3125 C-4.07881326 32.51970332 -8.61956968 32.32296993 -13.03125 29.87109375 C-17.42758805 26.45275463 -20.19793303 22.57385779 -21 17 C-20.72792715 10.58996377 -18.53073931 6.42286456 -14 2 C-9.54010861 -0.72653024 -5.08280469 -0.65143541 0 0 Z " fill="#6A6D73" transform="translate(1699,117)"/>
<path d="M0 0 C6.6 0 13.2 0 20 0 C21 1 21 1 21.09765625 4.16015625 C21.08605469 5.44792969 21.07445312 6.73570312 21.0625 8.0625 C21.05347656 9.35285156 21.04445313 10.64320313 21.03515625 11.97265625 C21.02355469 12.97167969 21.01195312 13.97070312 21 15 C21.7425 14.2575 22.485 13.515 23.25 12.75 C24.1575 11.8425 25.065 10.935 26 10 C26.721875 9.236875 27.44375 8.47375 28.1875 7.6875 C30 6 30 6 32 6 C30.59155282 9.21524305 28.89655214 11.32183868 26.375 13.75 C25.74335937 14.36359375 25.11171875 14.9771875 24.4609375 15.609375 C23.97882813 16.06828125 23.49671875 16.5271875 23 17 C22.01 16.67 21.02 16.34 20 16 C20 11.38 20 6.76 20 2 C13.73 2 7.46 2 1 2 C1 39.62 1 77.24 1 116 C7.6 116 14.2 116 21 116 C20.98428955 112.84280396 20.98428955 112.84280396 20.96826172 109.62182617 C20.93514384 102.67285011 20.91303907 95.72387058 20.89637566 88.77483654 C20.88593192 84.56103025 20.87176201 80.34730473 20.84912109 76.13354492 C20.82741367 72.06814593 20.81543581 68.00282468 20.81024551 63.93737221 C20.80654597 62.38520394 20.79932181 60.83304 20.78853989 59.28090477 C20.77405274 57.10929494 20.77202087 54.93800769 20.77294922 52.76635742 C20.768508 51.52947678 20.76406677 50.29259613 20.75949097 49.01823425 C21 46 21 46 23 43 C22.67 67.42 22.34 91.84 22 117 C14.74 117 7.48 117 0 117 C0 78.39 0 39.78 0 0 Z " fill="#7B7D81" transform="translate(1736,172)"/>
<path d="M0 0 C3.31248187 -0.02888146 6.62493167 -0.04675799 9.9375 -0.0625 C10.88302734 -0.07087891 11.82855469 -0.07925781 12.80273438 -0.08789062 C14.15141602 -0.09272461 14.15141602 -0.09272461 15.52734375 -0.09765625 C16.77632446 -0.10551147 16.77632446 -0.10551147 18.05053711 -0.11352539 C20 0 20 0 21 1 C21.07271741 3.35313555 21.08370868 5.70833668 21.0625 8.0625 C21.05347656 9.35285156 21.04445313 10.64320313 21.03515625 11.97265625 C21.02355469 12.97167969 21.01195312 13.97070312 21 15 C21.7425 14.2575 22.485 13.515 23.25 12.75 C24.1575 11.8425 25.065 10.935 26 10 C26.721875 9.236875 27.44375 8.47375 28.1875 7.6875 C30 6 30 6 32 6 C30.59155282 9.21524305 28.89655214 11.32183868 26.375 13.75 C25.74335937 14.36359375 25.11171875 14.9771875 24.4609375 15.609375 C23.97882813 16.06828125 23.49671875 16.5271875 23 17 C22.01 16.67 21.02 16.34 20 16 C20 11.38 20 6.76 20 2 C13.4 2 6.8 2 0 2 C0 1.34 0 0.68 0 0 Z " fill="#9A9C9F" transform="translate(1736,172)"/>
<path d="M0 0 C0.66 0.33 1.32 0.66 2 1 C-3.94 6.94 -9.88 12.88 -16 19 C-16.66 18.67 -17.32 18.34 -18 18 C-6.66287016 5.33029613 -6.66287016 5.33029613 0 0 Z " fill="#82AEF7" transform="translate(90,127)"/>
<path d="M0 0 C0.66 0.33 1.32 0.66 2 1 C-2.62 5.62 -7.24 10.24 -12 15 C-12 10.09687565 -8.29800369 7.38658643 -5 4 C-3.37458956 2.61667196 -1.72614587 1.25537882 0 0 Z " fill="#F08179" transform="translate(284,186)"/>
<path d="M0 0 C-1.58667578 3.90285767 -4.13350481 6.33520982 -7.125 9.25 C-8.03507812 10.14203125 -8.94515625 11.0340625 -9.8828125 11.953125 C-10.58148437 12.62859375 -11.28015625 13.3040625 -12 14 C-12 9.87322664 -9.8002029 8.16826067 -7.125 5.3125 C-6.66480469 4.80138672 -6.20460938 4.29027344 -5.73046875 3.76367188 C-2.26326769 0 -2.26326769 0 0 0 Z " fill="#909397" transform="translate(1884,180)"/>
<path d="M0 0 C0.66 0 1.32 0 2 0 C0.52278578 3.45201639 -1.43794001 5.64961936 -4.125 8.25 C-4.84945313 8.95640625 -5.57390625 9.6628125 -6.3203125 10.390625 C-6.87460938 10.92171875 -7.42890625 11.4528125 -8 12 C-8.66 11.67 -9.32 11.34 -10 11 C-8.52116808 9.35386588 -7.04192523 7.70810092 -5.5625 6.0625 C-4.73878906 5.14597656 -3.91507813 4.22945312 -3.06640625 3.28515625 C-1 1 -1 1 0 0 Z " fill="#8F9195" transform="translate(1230,180)"/>
<path d="M0 0 C-1.53643852 3.68069887 -3.78150945 5.98775204 -6.625 8.75 C-7.85089844 9.94882813 -7.85089844 9.94882813 -9.1015625 11.171875 C-9.72804688 11.77515625 -10.35453125 12.3784375 -11 13 C-11 8.89253434 -9.36039564 7.80245139 -6.625 4.8125 C-5.81289063 3.91144531 -5.00078125 3.01039063 -4.1640625 2.08203125 C-2 0 -2 0 0 0 Z " fill="#F0827A" transform="translate(754,187)"/>
<path d="M0 0 C0.66 0.33 1.32 0.66 2 1 C0.90344712 2.31886772 -0.20253423 3.62990057 -1.3125 4.9375 C-1.92738281 5.66839844 -2.54226563 6.39929688 -3.17578125 7.15234375 C-5 9 -5 9 -8 10 C-6.34908222 5.70761377 -3.26245434 3.1206085 0 0 Z " fill="#8A8D91" transform="translate(1374,178)"/>
</svg>
