<?xml version="1.0" encoding="UTF-8"?>
<svg version="1.1" xmlns="http://www.w3.org/2000/svg" width="751" height="226">
<path d="M0 0 C5.47613669 1.18112752 8.3094788 2.52664097 12 7 C12 7.66 12 8.32 12 9 C14.97 9.495 14.97 9.495 18 10 C17.67 10.66 17.34 11.32 17 12 C16.01 12 15.02 12 14 12 C14.59167969 12.23074219 15.18335938 12.46148437 15.79296875 12.69921875 C20.78720442 14.7604612 24.55386437 16.66453904 28 21 C28 21.99 28 22.98 28 24 C27.34 24 26.68 24 26 24 C27.02046075 26.78307477 27.5977621 27.8043167 30.3125 29.125 C31.199375 29.41375 32.08625 29.7025 33 30 C37.6754699 31.52224601 37.6754699 31.52224601 39.33203125 33.9609375 C40.42323468 37.29197956 39.52876201 39.94247599 38 43 C38.66 43.33 39.32 43.66 40 44 C37 44 37 44 35.125 43.375 C32.18956135 42.85698141 30.6059437 43.62845068 28 45 C27.34 45.99 26.68 46.98 26 48 C25.01 48 24.02 48 23 48 C23 47.34 23 46.68 23 46 C23.99 46 24.98 46 26 46 C26 45.34 26 44.68 26 44 C24.9171875 43.7215625 24.9171875 43.7215625 23.8125 43.4375 C20.83004873 41.91313602 20.31180234 41.17224931 18.625 38.4375 C16.60197994 35.37752312 16.26934944 35.07695698 12.5 34 C9.46163191 34 6.92103456 34.20335421 4 35 C6.14657595 40.44905706 6.14657595 40.44905706 10.1875 44.4375 C14.10433144 45.22086629 18.02102959 45.67058633 22 46 C21.34 46.99 20.68 47.98 20 49 C19.34 49 18.68 49 18 49 C18 49.66 18 50.32 18 51 C18.53625 51.226875 19.0725 51.45375 19.625 51.6875 C27.24231912 55.89707109 31.41738283 61.68377135 34.375 69.75 C36.29113224 79.03867914 34.31240029 89.47369952 29.46875 97.5546875 C28.02485884 99.74095665 26.54531841 101.88456412 25 104 C24.67 103.01 24.34 102.02 24 101 C23.67 100.67 23.34 100.34 23 100 C22.17988688 101.55851755 21.36923787 103.12201716 20.5625 104.6875 C20.11003906 105.55761719 19.65757812 106.42773438 19.19140625 107.32421875 C18.04008072 109.90998264 17.43679247 112.21356528 17 115 C16.34 115 15.68 115 15 115 C14.01 112.36 13.02 109.72 12 107 C11.25234375 107.37253906 10.5046875 107.74507813 9.734375 108.12890625 C8.74953125 108.60199219 7.7646875 109.07507813 6.75 109.5625 C5.77546875 110.03816406 4.8009375 110.51382813 3.796875 111.00390625 C0.90143703 112.03510273 -0.19966161 112.11346788 -3 111 C-2.67 110.67 -2.34 110.34 -2 110 C-8.13921983 110.27285421 -12.052226 111.06427068 -17 115 C-17.94875 115.7425 -18.8975 116.485 -19.875 117.25 C-20.926875 118.11625 -20.926875 118.11625 -22 119 C-21.33501617 114.61110675 -19.81242323 111.0188515 -18 107 C-18.59167969 107.08378906 -19.18335938 107.16757813 -19.79296875 107.25390625 C-24.09939457 107.80889424 -27.75552644 108.23226652 -32 107 C-30 105 -30 105 -27.5 103.625 C-24.78574593 101.86073486 -23.8813671 101.08478484 -23 98 C-23.1442976 94.5368575 -23.65437503 92.52534996 -25.5625 89.625 C-28.40779464 87.72813691 -30.63217679 87.36242575 -34.04296875 87.55859375 C-38.12395069 88.47905475 -39.94934487 91.38191789 -42.12109375 94.7265625 C-47.38334294 104.0945226 -47.2995488 114.53243376 -47 125 C-49.31399023 122.68600977 -49.32256804 122.01395276 -49.6328125 118.8671875 C-49.71660156 118.06152344 -49.80039063 117.25585938 -49.88671875 116.42578125 C-49.96535156 115.58402344 -50.04398437 114.74226563 -50.125 113.875 C-50.21136719 113.02550781 -50.29773438 112.17601562 -50.38671875 111.30078125 C-50.59902557 109.20130273 -50.80053603 107.10073758 -51 105 C-51.99 109.29 -52.98 113.58 -54 118 C-56 116 -56 116 -56.2265625 112.3671875 C-56.11493644 108.17269635 -55.41218678 104.18411982 -54.375 100.125 C-54.19751221 99.42955078 -54.02002441 98.73410156 -53.8371582 98.01757812 C-50.6282496 86.28743112 -43.31299407 76.1146665 -32.796875 69.91015625 C-29.34722493 68.1628335 -26.61504953 67.88811624 -22.8125 67.9375 C-21.46091797 67.95103516 -21.46091797 67.95103516 -20.08203125 67.96484375 C-19.39496094 67.97644531 -18.70789063 67.98804687 -18 68 C-17.67 68.66 -17.34 69.32 -17 70 C-19.97 70.99 -19.97 70.99 -23 72 C-19.7 72.66 -16.4 73.32 -13 74 C-13 74.33 -13 74.66 -13 75 C-15.475 75.495 -15.475 75.495 -18 76 C-17.01 76.99 -17.01 76.99 -16 78 C-13.71870451 77.69582727 -12.07956541 77.04363264 -10.0625 75.9375 C-7.58059367 74.80936076 -5.69597461 74.85022363 -3 75 C-3.9590625 76.0828125 -3.9590625 76.0828125 -4.9375 77.1875 C-7.02373333 80.03236364 -7.82134336 81.51619558 -8 85 C-7.37654095 87.13792224 -7.37654095 87.13792224 -6 89 C-3.82791412 89.91160093 -3.82791412 89.91160093 -1.375 90.25 C-0.55773437 90.39953125 0.25953125 90.5490625 1.1015625 90.703125 C1.72804687 90.80109375 2.35453125 90.8990625 3 91 C3 90.34 3 89.68 3 89 C2.34 89 1.68 89 1 89 C1.33 88.34 1.66 87.68 2 87 C2.969375 87.020625 3.93875 87.04125 4.9375 87.0625 C7.87465895 87.35618499 7.87465895 87.35618499 9 86 C7.515 85.01 7.515 85.01 6 84 C6.66 83.525625 7.32 83.05125 8 82.5625 C10.54357156 79.30354894 10.63154266 77.23885581 10.46484375 73.19140625 C9.72434193 69.70046909 7.76129821 68.10384626 5 66 C4.01 65.505 4.01 65.505 3 65 C2.67 65.66 2.34 66.32 2 67 C-5.60220994 63.83535912 -5.60220994 63.83535912 -7.25 60.375 C-7.4975 59.59125 -7.745 58.8075 -8 58 C-9.95021083 56.77472052 -9.95021083 56.77472052 -12 56 C-12.66 55.34 -13.32 54.68 -14 54 C-14.66 54.66 -15.32 55.32 -16 56 C-17.32 56 -18.64 56 -20 56 C-19.773125 55.01 -19.54625 54.02 -19.3125 53 C-18.74598058 49.12749056 -19.71322381 46.72560083 -21.23046875 43.19921875 C-22.60879265 39.26015095 -22.7538788 35.14162579 -23 31 C-22.34 31 -21.68 31 -21 31 C-20.67 29.35 -20.34 27.7 -20 26 C-20.66 26 -21.32 26 -22 26 C-20.70106998 20.92236446 -18.64828967 18.64828967 -15 15 C-15 13.68 -15 12.36 -15 11 C-14.01 10.34 -13.02 9.68 -12 9 C-14.88087546 6.59927045 -17.56404834 4.52708963 -21 3 C-19 1 -19 1 -15.3125 0.6875 C-9.95931568 0.83323097 -5.67903216 2.4142474 -1.75 6.125 C-0.88375 7.053125 -0.88375 7.053125 0 8 C0.99 8.33 1.98 8.66 3 9 C3.85974801 6.70705512 3.85974801 6.70705512 4 4 C2.16641665 1.66545339 2.16641665 1.66545339 0 0 Z M15 19 C15 19.66 15 20.32 15 21 C16.32 21.33 17.64 21.66 19 22 C18.34 21.01 17.68 20.02 17 19 C16.34 19 15.68 19 15 19 Z M20 33 C21.24976756 36.65316671 21.67098753 37.78065836 25 40 C25 38.68 25 37.36 25 36 C22.57327433 34.21030974 22.57327433 34.21030974 20 33 Z " fill="#E3272E" transform="translate(147,58)"/>
<path d="M0 0 C12.17203754 9.44506771 20.45205698 20.98639862 22.71875 36.4609375 C24.2121427 49.94295491 20.7549584 62.85573424 13 74 C9.62234767 77.96788608 5.84333451 81.4871433 2 85 C0.99600508 85.99598906 -0.00488281 86.99514091 -1 88 C-0.33282959 88.17668213 0.33434082 88.35336426 1.02172852 88.53540039 C6.77111718 90.0778458 12.45797136 91.74832872 18.13085938 93.55029297 C29.63147244 97.1857512 41.11067271 99.98359759 53 102 C54.04929687 102.19335938 55.09859375 102.38671875 56.1796875 102.5859375 C62.15622554 103.23370134 68.11776544 103.22553061 74.125 103.25 C75.36765625 103.270625 76.6103125 103.29125 77.890625 103.3125 C88.11955593 103.35520952 97.53407888 101.99272423 107 98 C107.99 99.485 107.99 99.485 109 101 C86.66727846 112.91971344 66.42651235 115.65829229 42.03125 108.62890625 C26.79583762 103.97829373 11.82386629 98.40180206 -3.1628418 93.01220703 C-7.52538085 91.45579305 -9.15839008 90.89183191 -13.5 92.4375 C-27.35622669 96.40166552 -43.36482982 95.13389118 -56.09375 88.3515625 C-58.82352367 86.67113731 -61.41780743 84.89765158 -64 83 C-65.60875 81.8553125 -65.60875 81.8553125 -67.25 80.6875 C-77.50690776 70.66370378 -83.04603871 57.74866694 -83.3125 43.5 C-83.3569343 29.16088704 -78.02131921 16.5951518 -68.29296875 6.13671875 C-50.24010948 -10.68596271 -20.79068848 -13.38442086 0 0 Z M-62.3125 10.25 C-69.33270557 19.02525696 -70.85835867 30.11939719 -70 41 C-67.47963733 57.27785452 -60.38017965 70.9107989 -47.1875 81.1875 C-44.33793466 83.23861435 -44.33793466 83.23861435 -42.17578125 82.73828125 C-40.49549905 82.16813164 -38.834514 81.54091814 -37.18359375 80.890625 C-33.42759521 79.83986713 -30.8973325 80.12286717 -27.0625 80.75 C-25.8353125 80.94722656 -24.608125 81.14445312 -23.34375 81.34765625 C-20.82550291 81.83894978 -18.48978694 82.38759862 -16.0625 83.1875 C-12.22708106 84.20506013 -9.82771937 84.04392347 -6 83 C1.6834287 78.13905531 6.26310464 69.48017147 8.52734375 60.81640625 C10.97763335 46.2159203 7.9369477 32.37332197 0.1015625 19.88671875 C-8.00259766 8.75479616 -18.26162123 0.64020168 -32.05859375 -1.75390625 C-43.74974578 -3.23588327 -54.347312 1.78574007 -62.3125 10.25 Z M-34 85 C-34.33 85.66 -34.66 86.32 -35 87 C-31.24600202 88.2039337 -27.66782588 88.09877617 -23.75 88.0625 C-22.48671875 88.05347656 -21.2234375 88.04445313 -19.921875 88.03515625 C-18.47554687 88.01775391 -18.47554687 88.01775391 -17 88 C-21.33485368 85.67775696 -24.83951522 84.86528699 -29.75 84.9375 C-30.94882812 84.95103516 -30.94882812 84.95103516 -32.171875 84.96484375 C-33.07679688 84.98224609 -33.07679688 84.98224609 -34 85 Z " fill="#131313" transform="translate(329,72)"/>
<path d="M0 0 C11.22 0 22.44 0 34 0 C34 1.65 34 3.3 34 5 C30.7 5 27.4 5 24 5 C24.06127505 14.67535744 24.13842719 24.35042127 24.23571491 34.02548409 C24.28039618 38.51827314 24.31965721 43.01097199 24.34643555 47.50390625 C24.37249097 51.84182052 24.4129091 56.17938724 24.46318626 60.51708603 C24.47983986 62.16998844 24.49136353 63.82295095 24.49761391 65.47592545 C24.50727161 67.79567947 24.5353494 70.11454738 24.56762695 72.43408203 C24.57873001 73.75312531 24.58983307 75.07216858 24.60127258 76.43118286 C25.14586584 81.30557494 26.44470589 84.75471384 30.3125 87.8515625 C33.40075192 89.17125155 35.64925494 89.40064346 39 89.375 C40.010625 89.38273437 41.02125 89.39046875 42.0625 89.3984375 C45.55320908 88.92496366 47.28069322 88.25077757 50 86 C52.54919533 81.02717967 53.37310429 77.38452476 53.35644531 71.71948242 C53.35848969 71.02916931 53.36053406 70.3388562 53.36264038 69.62762451 C53.36562303 67.36996037 53.34725494 65.11304475 53.328125 62.85546875 C53.32506404 61.27842896 53.32319048 59.70138646 53.32244873 58.12434387 C53.31786224 54.83189423 53.30349489 51.53969144 53.28125 48.24731445 C53.25285245 44.02261709 53.24202498 39.79811273 53.2375679 35.57332897 C53.23341835 32.32290208 53.22360665 29.07251429 53.21169281 25.82210732 C53.2059902 24.26354599 53.20123146 22.70498092 53.19742584 21.1464138 C53.19057259 18.97538968 53.17694773 16.80451992 53.16113281 14.63354492 C53.15089081 12.77991585 53.15089081 12.77991585 53.14044189 10.88883972 C53.19747921 8.05891303 53.19747921 8.05891303 52 6 C50.10466658 5.53476937 50.10466658 5.53476937 47.9375 5.375 C46.638125 5.25125 45.33875 5.1275 44 5 C44 3.35 44 1.7 44 0 C52.25 0 60.5 0 69 0 C69 1.65 69 3.3 69 5 C65.7 5 62.4 5 59 5 C59.01665459 6.41368362 59.01665459 6.41368362 59.03364563 7.85592651 C59.13533868 16.77068669 59.21011662 25.68532802 59.25906086 34.60053825 C59.28507041 39.1831583 59.32030869 43.76530726 59.37719727 48.34765625 C59.43182783 52.77622177 59.46148542 57.20433636 59.47438622 61.63321304 C59.48357076 63.31641862 59.50150543 64.99960163 59.52865028 66.68261337 C59.69307333 77.30690372 59.3963489 86.31195657 51.6875 94.4375 C43.84888962 98.99483162 36.54984822 100.24957359 27.54296875 98.53125 C22.04417599 96.95748989 17.74305466 94.35333531 14 90 C10.49453813 83.45647117 9.88724491 77.21909698 9.79467773 69.89306641 C9.78477814 69.20944031 9.77487854 68.52581421 9.76467896 67.82147217 C9.73331237 65.58153645 9.70840581 63.34157958 9.68359375 61.1015625 C9.66300271 59.54071529 9.6420057 57.9798734 9.62062073 56.41903687 C9.56562195 52.32562579 9.5161155 48.23216625 9.46777344 44.13867188 C9.41739559 39.95568568 9.36179481 35.77276921 9.30664062 31.58984375 C9.19933082 23.39328826 9.09782637 15.19667414 9 7 C4.545 6.01 4.545 6.01 0 5 C0 3.35 0 1.7 0 0 Z " fill="#131313" transform="translate(32,67)"/>
<path d="M0 0 C1.65 0 3.3 0 5 0 C5 11.55 5 23.1 5 35 C3.35 35 1.7 35 0 35 C-1.74837209 33.25162791 -1.25212439 30.69102064 -1.375 28.3125 C-1.88879806 21.72347917 -1.88879806 21.72347917 -5 16 C-11.47819912 11.73027785 -19.48803072 12.33238802 -27 12 C-27 19.26 -27 26.52 -27 34 C-23.37 34 -19.74 34 -16 34 C-16 29.71 -16 25.42 -16 21 C-14.02 21 -12.04 21 -10 21 C-9.9753481 25.82380802 -9.95716307 30.64757967 -9.94506836 35.47143555 C-9.94002826 37.11369464 -9.93319622 38.75594923 -9.92456055 40.39819336 C-9.91248074 42.75375479 -9.90676861 45.10925709 -9.90234375 47.46484375 C-9.89718246 48.20339096 -9.89202118 48.94193817 -9.88670349 49.7028656 C-9.8865075 51.46898088 -9.93805281 53.23497146 -10 55 C-11 56 -11 56 -13.5625 56.0625 C-14.366875 56.041875 -15.17125 56.02125 -16 56 C-16.04898438 55.16855469 -16.09796875 54.33710937 -16.1484375 53.48046875 C-16.22320312 52.39378906 -16.29796875 51.30710938 -16.375 50.1875 C-16.47941406 48.56908203 -16.47941406 48.56908203 -16.5859375 46.91796875 C-16.81195733 43.81373814 -16.81195733 43.81373814 -19 41 C-20.95385067 40.21011855 -20.95385067 40.21011855 -23.125 39.8125 C-24.40375 39.544375 -25.6825 39.27625 -27 39 C-26.88239798 46.61730174 -26.75756641 54.23446029 -26.62768555 61.8515625 C-26.58434872 64.44333199 -26.54267275 67.03512979 -26.50268555 69.62695312 C-26.44495298 73.35034728 -26.3812667 77.07359904 -26.31640625 80.796875 C-26.29969376 81.95741394 -26.28298126 83.11795288 -26.26576233 84.31365967 C-26.24581711 85.39447815 -26.22587189 86.47529663 -26.20532227 87.58886719 C-26.18200584 89.01449982 -26.18200584 89.01449982 -26.15821838 90.46893311 C-26.05963943 93.27579752 -26.05963943 93.27579752 -25 97 C-21.7 97.66 -18.4 98.32 -15 99 C-15 100.65 -15 102.3 -15 104 C-26.55 104 -38.1 104 -50 104 C-50.495 101.525 -50.495 101.525 -51 99 C-47.37 99 -43.74 99 -40 99 C-40.0843988 88.52514171 -40.17928054 78.05043577 -40.28752708 67.57579517 C-40.33746193 62.71193606 -40.3837923 57.84809836 -40.421875 52.98413086 C-40.45876321 48.2896852 -40.50513293 43.59542 -40.55806351 38.90112877 C-40.57658863 37.11062474 -40.59170354 35.32008206 -40.60334396 33.52952003 C-40.62023859 31.02055021 -40.6492813 28.51199194 -40.68115234 26.00317383 C-40.68331253 25.26374039 -40.68547272 24.52430695 -40.68769836 23.76246643 C-40.75283293 19.7458057 -41.22604555 16.61969011 -43 13 C-45.31 12.67 -47.62 12.34 -50 12 C-50.33 10.35 -50.66 8.7 -51 7 C-34.5 7 -18 7 -1 7 C-1 5.02 -1 3.04 -1 1 C-0.67 0.67 -0.34 0.34 0 0 Z " fill="#101010" transform="translate(234,60)"/>
<path d="M0 0 C5.01705721 -0.07442006 10.03378972 -0.12872908 15.05126953 -0.16479492 C16.75640463 -0.17983738 18.46150132 -0.20027653 20.16650391 -0.22631836 C22.62412012 -0.26290284 25.08122269 -0.27977173 27.5390625 -0.29296875 C28.29555084 -0.30845261 29.05203918 -0.32393646 29.83145142 -0.33988953 C34.59974132 -0.34138955 37.8879649 0.32240492 42 3 C43.1875 5.8125 43.1875 5.8125 43 9 C41.54818813 11.33667531 39.94322563 13.00937862 38 15 C38.82696433 16.32980711 39.68807005 17.63841216 40.5625 18.9375 C41.03816406 19.66839844 41.51382813 20.39929688 42.00390625 21.15234375 C44.41609848 23.73644478 44.41609848 23.73644478 51 24 C54.3 16.08 57.6 8.16 61 0 C61.66 0 62.32 0 63 0 C64.67257264 3.78908876 66.33705115 7.58167885 68 11.375 C68.47695313 12.45523438 68.95390625 13.53546875 69.4453125 14.6484375 C69.89648438 15.6796875 70.34765625 16.7109375 70.8125 17.7734375 C71.23144531 18.72653809 71.65039062 19.67963867 72.08203125 20.66162109 C73 23 73 23 73 25 C74.98 25 76.96 25 79 25 C79 17.41 79 9.82 79 2 C78.01 2 77.02 2 76 2 C76 1.34 76 0.68 76 0 C79.10958276 -0.46370971 81.00144331 -0.71670248 84 0 C86.88047547 2.44331391 88.88095098 5.39304934 91 8.5 C91.58394531 9.31082031 92.16789063 10.12164062 92.76953125 10.95703125 C94.20316273 12.95471447 95.60481426 14.97527923 97 17 C97.33 12.38 97.66 7.76 98 3 C96.68 2.34 95.36 1.68 94 1 C95 0 95 0 97.06640625 -0.09765625 C98.30197266 -0.08025391 98.30197266 -0.08025391 99.5625 -0.0625 C100.38878906 -0.05347656 101.21507812 -0.04445313 102.06640625 -0.03515625 C102.70449219 -0.02355469 103.34257813 -0.01195313 104 0 C103 3 103 3 101 4 C100.67 11.92 100.34 19.84 100 28 C96.8755878 24.8755878 94.26612482 22.23093285 91.66796875 18.79296875 C91.09755859 18.04208984 90.52714844 17.29121094 89.93945312 16.51757812 C89.36130859 15.74865234 88.78316406 14.97972656 88.1875 14.1875 C87.59001953 13.39923828 86.99253906 12.61097656 86.37695312 11.79882812 C84.91455705 9.8684653 83.45680496 7.9345858 82 6 C82 12.27 82 18.54 82 25 C83.98 25.495 83.98 25.495 86 26 C86 26.33 86 26.66 86 27 C79.07 27 72.14 27 65 27 C65 26.34 65 25.68 65 25 C65.99 25 66.98 25 68 25 C67.505 24.1028125 67.505 24.1028125 67 23.1875 C66 21 66 21 66 18 C62.7 18.33 59.4 18.66 56 19 C55.34 20.98 54.68 22.96 54 25 C54.99 25.33 55.98 25.66 57 26 C57 26.33 57 26.66 57 27 C42.84923404 28.22311543 42.84923404 28.22311543 38.51953125 25.359375 C36.80993717 23.32144828 35.39431483 21.26198443 34 19 C32.68364976 17.64989719 31.36026098 16.30585054 30 15 C30 18.3 30 21.6 30 25 C31.32 25 32.64 25 34 25 C34 25.66 34 26.32 34 27 C29.71 27 25.42 27 21 27 C21 26.34 21 25.68 21 25 C22.32 25 23.64 25 25 25 C24.67 17.74 24.34 10.48 24 3 C23.01 2.67 22.02 2.34 21 2 C21 3.98 21 5.96 21 8 C20.34 8 19.68 8 19 8 C18.76539063 7.36578125 18.53078125 6.7315625 18.2890625 6.078125 C17.17709092 3.81749261 17.17709092 3.81749261 14.8359375 3.171875 C13.61777344 2.96304688 13.61777344 2.96304688 12.375 2.75 C10.209375 2.37875 10.209375 2.37875 8 2 C8 5.3 8 8.6 8 12 C9.65 12 11.3 12 13 12 C13.66 10.68 14.32 9.36 15 8 C16 9 16 9 16.09765625 11.06640625 C16.08605469 11.89011719 16.07445312 12.71382812 16.0625 13.5625 C16.05347656 14.38878906 16.04445313 15.21507813 16.03515625 16.06640625 C16.02355469 16.70449219 16.01195312 17.34257813 16 18 C15.34 18 14.68 18 14 18 C13.67 16.68 13.34 15.36 13 14 C11.35 14 9.7 14 8 14 C8.33 17.3 8.66 20.6 9 24 C9.99 24.33 10.98 24.66 12 25 C12 25.66 12 26.32 12 27 C8.04 27 4.08 27 0 27 C0 26.34 0 25.68 0 25 C0.99 25 1.98 25 3 25 C3 17.41 3 9.82 3 2 C2.01 2 1.02 2 0 2 C0 1.34 0 0.68 0 0 Z M30 2 C30 5.63 30 9.26 30 13 C32.93443402 12.73343428 32.93443402 12.73343428 36 12 C38.29637779 9.24104365 38.29637779 9.24104365 37.75 6.4375 C37.16191948 3.84999433 37.16191948 3.84999433 35 2 C33.35 2 31.7 2 30 2 Z M60 7 C59.01 9.97 58.02 12.94 57 16 C59.31 16 61.62 16 64 16 C63.44271087 12.65626525 62.64826111 9.96687001 61 7 C60.67 7 60.34 7 60 7 Z " fill="#383838" transform="translate(496,100)"/>
<path d="M0 0 C3.14419888 -0.54611884 5.86796454 -0.67922156 9 0 C11.96412841 2.40849269 13.94383195 5.34581726 16.0625 8.5 C16.64193359 9.31082031 17.22136719 10.12164062 17.81835938 10.95703125 C19.23881029 12.95270609 20.62310552 14.97402852 22 17 C22 12.38 22 7.76 22 3 C21.01 2.67 20.02 2.34 19 2 C19 1.34 19 0.68 19 0 C30.55 0 42.1 0 54 0 C54 0.66 54 1.32 54 2 C53.01 2 52.02 2 51 2 C52.14299502 4.64709291 53.28924372 7.29269052 54.4375 9.9375 C54.76298828 10.69224609 55.08847656 11.44699219 55.42382812 12.22460938 C56.80102606 15.87028689 56.80102606 15.87028689 59 19 C59.81832722 17.10667466 60.62942268 15.21022267 61.4375 13.3125 C61.88996094 12.25675781 62.34242188 11.20101562 62.80859375 10.11328125 C63.85447455 7.38027471 64.53520748 4.87957663 65 2 C64.01 1.67 63.02 1.34 62 1 C62 0.67 62 0.34 62 0 C64.97 0 67.94 0 71 0 C71 0.66 71 1.32 71 2 C70.54947266 2.43618652 70.09894531 2.87237305 69.63476562 3.32177734 C67.65418706 5.3550057 66.89390094 7.21975767 65.84375 9.8515625 C65.46089844 10.78484375 65.07804687 11.718125 64.68359375 12.6796875 C63.8918275 14.6499573 63.10278194 16.62132252 62.31640625 18.59375 C61.74212891 19.98980469 61.74212891 19.98980469 61.15625 21.4140625 C60.81400391 22.2695166 60.47175781 23.1249707 60.11914062 24.00634766 C59 26 59 26 56 27 C55.70343506 26.27820557 55.40687012 25.55641113 55.10131836 24.81274414 C53.74183774 21.54993803 52.34049757 18.30681726 50.9375 15.0625 C50.47150391 13.92619141 50.00550781 12.78988281 49.52539062 11.61914062 C48.81479492 9.99975586 48.81479492 9.99975586 48.08984375 8.34765625 C47.66566162 7.34742432 47.24147949 6.34719238 46.80444336 5.31665039 C44.76030666 2.13945959 44.76030666 2.13945959 38 2 C38.33 9.26 38.66 16.52 39 24 C39.99 24.33 40.98 24.66 42 25 C42 25.66 42 26.32 42 27 C38.04 27 34.08 27 30 27 C29.67 26.34 29.34 25.68 29 25 C29.99 24.67 30.98 24.34 32 24 C32.33 16.74 32.66 9.48 33 2 C30.69 2.33 28.38 2.66 26 3 C25.67 10.92 25.34 18.84 25 27 C21.2912786 25.1456393 20.3362495 24.52682794 18.0546875 21.41015625 C17.53519531 20.70826172 17.01570313 20.00636719 16.48046875 19.28320312 C15.95066406 18.55037109 15.42085938 17.81753906 14.875 17.0625 C14.33746094 16.33353516 13.79992187 15.60457031 13.24609375 14.85351562 C11.10207341 11.93689943 9.00833919 9.01250879 7 6 C6.67 11.94 6.34 17.88 6 24 C7.32 24.33 8.64 24.66 10 25 C10 25.66 10 26.32 10 27 C6.7 27 3.4 27 0 27 C0.495 25.515 0.495 25.515 1 24 C1.66 23.67 2.32 23.34 3 23 C3.33 16.07 3.66 9.14 4 2 C2.68 1.67 1.36 1.34 0 1 C0 0.67 0 0.34 0 0 Z " fill="#242424" transform="translate(439,64)"/>
<path d="M0 0 C2.68719953 2.34806633 3.81317427 4.53864383 5.0859375 7.8515625 C5.64667969 9.25148438 5.64667969 9.25148438 6.21875 10.6796875 C6.99120639 12.64736358 7.75420485 14.61877822 8.5078125 16.59375 C8.88421875 17.52445313 9.260625 18.45515625 9.6484375 19.4140625 C9.98020996 20.2695166 10.31198242 21.1249707 10.65380859 22.00634766 C11.87322833 24.26720769 11.87322833 24.26720769 14.64697266 24.78662109 C15.42347168 24.85703613 16.1999707 24.92745117 17 25 C17.94137255 22.17588235 18.11725382 20.47081968 18.09765625 17.55078125 C18.09282227 16.27944336 18.09282227 16.27944336 18.08789062 14.98242188 C18.07951172 14.10134766 18.07113281 13.22027344 18.0625 12.3125 C18.05798828 11.41982422 18.05347656 10.52714844 18.04882812 9.60742188 C18.03704983 7.40488013 18.02060164 5.20247401 18 3 C16.68 2.67 15.36 2.34 14 2 C14 1.67 14 1.34 14 1 C29.92661887 -0.82159165 29.92661887 -0.82159165 36 2 C38.64338132 4.28118724 40.43413421 6.86826843 42 10 C42.37168996 15.57534937 42.22542715 19.21747009 39 24 C33.97134738 27.94137638 28.3622514 28.13097985 22.1640625 28.09765625 C21.10058594 28.09443359 20.03710938 28.09121094 18.94140625 28.08789062 C17.84699219 28.07951172 16.75257813 28.07113281 15.625 28.0625 C14.50738281 28.05798828 13.38976562 28.05347656 12.23828125 28.04882812 C9.49213196 28.03709244 6.74609414 28.02067363 4 28 C3.67 27.34 3.34 26.68 3 26 C3.99 25.34 4.98 24.68 6 24 C5.34 22.35 4.68 20.7 4 19 C1.03 19 -1.94 19 -5 19 C-5.67801034 21.90073181 -5.67801034 21.90073181 -6 25 C-5.34 25.66 -4.68 26.32 -4 27 C-5 28 -5 28 -8.5625 28.0625 C-9.696875 28.041875 -10.83125 28.02125 -12 28 C-12 27.01 -12 26.02 -12 25 C-11.34 25 -10.68 25 -10 25 C-9.649375 23.845 -9.29875 22.69 -8.9375 21.5 C-6.49830724 14.12321802 -3.17224216 7.08322565 0 0 Z M23 2 C23 9.59 23 17.18 23 25 C29.63063241 26.1305266 29.63063241 26.1305266 35 23 C37.36576237 19.12875248 37.39090675 15.45633696 37 11 C35.64184747 7.72808708 34.50104494 5.50104494 32 3 C29.03 2.67 26.06 2.34 23 2 Z M-1 7 C-1.99 9.97 -2.98 12.94 -4 16 C-1.69 16 0.62 16 3 16 C2.01 13.03 1.02 10.06 0 7 C-0.33 7 -0.66 7 -1 7 Z " fill="#1C1C1C" transform="translate(637,63)"/>
<path d="M0 0 C0.66 0 1.32 0 2 0 C3.67257264 3.78908876 5.33705115 7.58167885 7 11.375 C7.47695313 12.45523438 7.95390625 13.53546875 8.4453125 14.6484375 C8.89648438 15.6796875 9.34765625 16.7109375 9.8125 17.7734375 C10.23144531 18.72653809 10.65039062 19.67963867 11.08203125 20.66162109 C12 23 12 23 12 25 C13.65 24.67 15.3 24.34 17 24 C17.0868329 20.541824 17.14033282 17.08392656 17.1875 13.625 C17.21263672 12.64015625 17.23777344 11.6553125 17.26367188 10.640625 C17.27333984 9.69960937 17.28300781 8.75859375 17.29296875 7.7890625 C17.3086792 6.91975098 17.32438965 6.05043945 17.34057617 5.15478516 C17.22818604 4.44370605 17.1157959 3.73262695 17 3 C16.01 2.34 15.02 1.68 14 1 C15 0 15 0 18.73046875 -0.453125 C22.52795778 -0.40229981 22.88490687 -0.10865545 25.86328125 2.703125 C26.70623454 3.866638 27.52235089 5.05000119 28.3125 6.25 C28.72822266 6.83652344 29.14394531 7.42304687 29.57226562 8.02734375 C30.73418536 9.67139552 31.86801394 11.33519634 33 13 C33.99 14.32 34.98 15.64 36 17 C36.33 12.38 36.66 7.76 37 3 C35.68 2.67 34.36 2.34 33 2 C33 1.34 33 0.68 33 0 C36.3 0 39.6 0 43 0 C43 0.66 43 1.32 43 2 C42.01 2.66 41.02 3.32 40 4 C39.49039309 6.51385259 39.49039309 6.51385259 39.48828125 9.4453125 C39.45283203 10.52167969 39.41738281 11.59804687 39.38085938 12.70703125 C39.35830078 13.83496094 39.33574219 14.96289062 39.3125 16.125 C39.27833984 17.26066406 39.24417969 18.39632812 39.20898438 19.56640625 C39.12630498 22.37750579 39.05722063 25.18828553 39 28 C33.84863214 24.46874219 30.71935781 19.78988628 27.1875 14.75 C26.59001953 13.90953125 25.99253906 13.0690625 25.37695312 12.203125 C23.91160822 10.13991937 22.45493185 8.07056187 21 6 C21 11.94 21 17.88 21 24 C22.32 24.66 23.64 25.32 25 26 C25 26.33 25 26.66 25 27 C18.07 27 11.14 27 4 27 C4 26.34 4 25.68 4 25 C4.99 25 5.98 25 7 25 C6.01 23.02 5.02 21.04 4 19 C1.03 19 -1.94 19 -5 19 C-5.66 20.98 -6.32 22.96 -7 25 C-6.01 25 -5.02 25 -4 25 C-4 25.66 -4 26.32 -4 27 C-6.97 27 -9.94 27 -13 27 C-13 26.34 -13 25.68 -13 25 C-12.01 25 -11.02 25 -10 25 C-9.649375 23.845 -9.29875 22.69 -8.9375 21.5 C-6.49830724 14.12321802 -3.17224216 7.08322565 0 0 Z M-1 7 C-1.99 9.97 -2.98 12.94 -4 16 C-1.69 16 0.62 16 3 16 C2.01 13.03 1.02 10.06 0 7 C-0.33 7 -0.66 7 -1 7 Z " fill="#242424" transform="translate(442,100)"/>
<path d="M0 0 C0.99 0 1.98 0 3 0 C3 33.99 3 67.98 3 103 C1.68 102.67 0.36 102.34 -1 102 C-1.0231209 88.84850976 -1.04091379 75.69702431 -1.05181217 62.54551792 C-1.05704156 56.43943631 -1.0641402 50.33336856 -1.07543945 44.22729492 C-1.08626637 38.33994853 -1.09227642 32.45261551 -1.09487724 26.56525993 C-1.09673185 24.31367723 -1.10035313 22.06209531 -1.10573006 19.81051826 C-1.11293789 16.66866573 -1.11399105 13.52686917 -1.11352539 10.38500977 C-1.11712067 9.44418045 -1.12071594 8.50335114 -1.12442017 7.53401184 C-1.11405216 1.11405216 -1.11405216 1.11405216 0 0 Z " fill="#E95459" transform="translate(381,63)"/>
<path d="M0 0 C3.4475043 3.36131669 5.36550683 6.540293 5.59375 11.45703125 C5.22097794 16.331026 3.73169505 19.68174629 0.5 23.4375 C-2.75 25.3125 -2.75 25.3125 -5.5 26.4375 C1.7882636 29.19935089 1.7882636 29.19935089 9.5 29.4375 C10.49 28.7775 11.48 28.1175 12.5 27.4375 C11.75 32.1875 11.75 32.1875 9.5 34.4375 C4.83948001 34.91145119 1.91755671 34.9768122 -2.0625 32.4375 C-5.97769492 30.15956841 -8.05320579 30.10189289 -12.5 30.4375 C-13.82 30.4375 -15.14 30.4375 -16.5 30.4375 C-14.86587557 28.72909719 -13.63093906 27.50296953 -11.5 26.4375 C-12.5725 26.025 -13.645 25.6125 -14.75 25.1875 C-18.02917572 23.7802424 -20.21788913 22.24625184 -22.5 19.4375 C-23.95948617 15.05904149 -24.24600712 11.00333986 -23.5 6.4375 C-18.50175178 -2.37270335 -9.0186733 -4.02619344 0 0 Z M-17.5 4.4375 C-19.27739569 9.76968706 -19.17853641 14.7103164 -17.125 19.9375 C-15.74138268 22.52772556 -15.74138268 22.52772556 -13.5 23.4375 C-11.42779161 23.74878861 -11.42779161 23.74878861 -9.125 23.8125 C-8.35414063 23.86148438 -7.58328125 23.91046875 -6.7890625 23.9609375 C-4.28259458 23.59020445 -4.28259458 23.59020445 -2.2421875 21.3203125 C-0.1839008 17.91444797 0.0369581 15.8920169 0 11.9375 C0.0103125 10.8340625 0.020625 9.730625 0.03125 8.59375 C-0.61303099 4.76596297 -1.69350531 3.0929507 -4.5 0.4375 C-9.7526487 -1.05136697 -14.33509317 -0.17798912 -17.5 4.4375 Z " fill="#333333" transform="translate(497.5,138.5625)"/>
<path d="M0 0 C2 3 2 3 1.9375 5.4375 C0.71636852 8.77525938 -1.12323094 10.00839065 -4 12 C-2.75796305 13.46512126 -1.50602944 14.92185645 -0.25 16.375 C0.44609375 17.18710938 1.1421875 17.99921875 1.859375 18.8359375 C3.85949643 20.85795807 5.39531129 21.93231229 8 23 C8 23.66 8 24.32 8 25 C1.76006356 25.61175847 1.76006356 25.61175847 -1.5625 22.9375 C-2.366875 21.968125 -3.17125 20.99875 -4 20 C-5.10338114 18.72848459 -6.20756181 17.45766259 -7.3125 16.1875 C-8.199375 15.135625 -9.08625 14.08375 -10 13 C-10 15.97 -10 18.94 -10 22 C-9.01 22.33 -8.02 22.66 -7 23 C-7 23.66 -7 24.32 -7 25 C-11.29 25 -15.58 25 -20 25 C-20 24.34 -20 23.68 -20 23 C-19.01 22.67 -18.02 22.34 -17 22 C-16.67 14.74 -16.34 7.48 -16 0 C-17.32 0 -18.64 0 -20 0 C-20 -0.66 -20 -1.32 -20 -2 C-12.43084514 -3.47690826 -6.83382655 -3.61790817 0 0 Z M-11 -1 C-11 2.63 -11 6.26 -11 10 C-9.35 10 -7.7 10 -6 10 C-3.58878141 8.04366025 -3.58878141 8.04366025 -3.875 4.375 C-3.91625 3.26125 -3.9575 2.1475 -4 1 C-6.64738916 -0.4606285 -7.89448334 -1 -11 -1 Z " fill="#333333" transform="translate(555,66)"/>
<path d="M0 0 C2.85520781 -0.10876982 5.70620561 -0.18766466 8.5625 -0.25 C9.36236328 -0.28351563 10.16222656 -0.31703125 10.98632812 -0.3515625 C16.86028971 -0.44746391 20.20653941 0.55142282 25 4 C27.96720042 8.72897566 28.42657927 12.53801577 27.57421875 17.91796875 C26.71242358 21.04270906 25.37456819 22.8233125 23 25 C18.35233421 27.53108175 13.82876677 27.2305035 8.6875 27.125 C7.85154297 27.11597656 7.01558594 27.10695312 6.15429688 27.09765625 C4.10274031 27.07420989 2.05133223 27.03834266 0 27 C0 26.34 0 25.68 0 25 C1.32 25 2.64 25 4 25 C4 17.41 4 9.82 4 2 C2.68 2 1.36 2 0 2 C0 1.34 0 0.68 0 0 Z M9 2 C8.97112488 5.64581687 8.95324415 9.29160463 8.9375 12.9375 C8.92912109 13.97841797 8.92074219 15.01933594 8.91210938 16.09179688 C8.90888672 17.08115234 8.90566406 18.07050781 8.90234375 19.08984375 C8.89710693 20.00628662 8.89187012 20.92272949 8.88647461 21.86694336 C8.76078789 23.98363023 8.76078789 23.98363023 10 25 C14.29254017 25.4952931 16.31367592 25.49236293 19.875 22.9375 C22.4781888 19.3389743 23 17.44140362 23 13 C21.59500796 6.482131 21.59500796 6.482131 17 2 C14.94290404 1.75944532 14.94290404 1.75944532 12.8125 1.875 C11.554375 1.91625 10.29625 1.9575 9 2 Z " fill="#484848" transform="translate(409,137)"/>
<path d="M0 0 C2.6595864 3.65693129 4.20357838 6.36522467 3.80859375 10.9921875 C3.16618979 14.52251559 2.37447784 17.18828323 0.375 20.1875 C-6.91140201 24.98118553 -15.63804348 23.96139778 -24 23.75 C-24 23.09 -24 22.43 -24 21.75 C-23.01 21.42 -22.02 21.09 -21 20.75 C-20.67 13.49 -20.34 6.23 -20 -1.25 C-21.32 -1.25 -22.64 -1.25 -24 -1.25 C-24 -1.91 -24 -2.57 -24 -3.25 C-15.56168229 -4.43713975 -7.13952286 -5.35464214 0 0 Z M-15 -2.25 C-15.02887236 1.56248426 -15.04675492 5.3749407 -15.0625 9.1875 C-15.07087891 10.27611328 -15.07925781 11.36472656 -15.08789062 12.48632812 C-15.09111328 13.52080078 -15.09433594 14.55527344 -15.09765625 15.62109375 C-15.10289307 16.57943115 -15.10812988 17.53776855 -15.11352539 18.52514648 C-15.2505313 20.72285339 -15.2505313 20.72285339 -14 21.75 C-8.31712623 21.5724201 -8.31712623 21.5724201 -3.5 18.875 C-1.24847479 14.18432249 -1.37761377 9.85971414 -2 4.75 C-2.90180336 1.65644342 -2.90180336 1.65644342 -5 -0.25 C-8.63733529 -1.87519236 -10.98452087 -2.25 -15 -2.25 Z " fill="#363636" transform="translate(622,67.25)"/>
<path d="M0 0 C4.55510663 3.00222937 6.39373883 5.33995385 7.6875 10.6875 C8.01621451 15.04296732 7.00368955 18.03211753 4.75 21.8125 C0.56867919 25.50762072 -3.67828905 27.06291398 -9.25 26.8125 C-13.71472369 25.96826134 -16.52869108 24.53380892 -19.75 21.3125 C-21.8564872 16.3973632 -22.15779417 12.07927134 -21.25 6.8125 C-19.58686493 3.3703557 -17.22693472 1.3933801 -13.9375 -0.5625 C-8.85856661 -1.7436473 -4.8458393 -1.77059513 0 0 Z M-15.25 4.8125 C-17.00131591 10.06644774 -17.1398402 15.67688351 -15 20.8125 C-13.06586503 23.02293996 -12.08355913 24.02540024 -9.25 24.8125 C-5.28017002 24.74161018 -3.01750551 24.38320922 0.1875 22 C2.58450669 17.11010636 2.38328593 12.16597524 1.75 6.8125 C0.50930097 3.47884607 -0.16221858 2.87102095 -3.25 0.8125 C-10.2951088 0.1287414 -10.2951088 0.1287414 -15.25 4.8125 Z " fill="#313131" transform="translate(714.25,101.1875)"/>
<path d="M0 0 C3.02022382 2.18966227 4.18032218 3.29335915 5.5 6.8125 C6.21393433 11.4711018 6.60488617 15.82509469 4.2578125 20.046875 C1.18939539 23.74118814 -1.03797921 25.50278719 -5.953125 26.12109375 C-10.94529926 26.35117999 -14.55766165 26.4166644 -18.5625 23.1875 C-21.37277057 20.30983685 -22.84098396 17.84897326 -23.5 13.8125 C-23.19031536 7.92849186 -21.8982039 3.98587228 -17.5 0 C-11.76204772 -2.27127278 -5.79110892 -1.96484053 0 0 Z M-16.5 3.8125 C-18.3427698 9.34080941 -18.48016758 15.58484641 -16.125 20.9375 C-13.60760727 23.84218392 -12.59548659 23.80479947 -8.625 24.125 C-5.42386325 24.09595157 -4.70998037 23.97402336 -2.0625 21.9375 C1.39203946 17.23932634 0.97445484 12.48141729 0.5 6.8125 C-0.87252707 3.69312031 -1.479543 2.3227285 -4.5 0.8125 C-6.60854036 0.5772268 -6.60854036 0.5772268 -8.9375 0.5625 C-10.11119141 0.52382812 -10.11119141 0.52382812 -11.30859375 0.484375 C-14.03677498 0.89287272 -14.8441611 1.64522461 -16.5 3.8125 Z " fill="#303030" transform="translate(596.5,138.1875)"/>
<path d="M0 0 C6.6 0 13.2 0 20 0 C20 2.31 20 4.62 20 7 C19.34 7 18.68 7 18 7 C17.7525 6.0409375 17.7525 6.0409375 17.5 5.0625 C16.218214 2.83880759 16.218214 2.83880759 14.0859375 2.51171875 C12.06424845 2.2724022 10.03158061 2.13106972 8 2 C8 4.97 8 7.94 8 11 C9.98 11 11.96 11 14 11 C14 10.01 14 9.02 14 8 C14.66 8 15.32 8 16 8 C16 10.97 16 13.94 16 17 C15.34 17 14.68 17 14 17 C13.67 16.01 13.34 15.02 13 14 C11.35 13.67 9.7 13.34 8 13 C8.14042877 14.64630328 8.28749329 16.29204179 8.4375 17.9375 C8.51871094 18.85402344 8.59992187 19.77054688 8.68359375 20.71484375 C8.76044976 22.96159732 8.76044976 22.96159732 10 24 C14.08478123 23.87298601 14.08478123 23.87298601 18 23 C19.99083177 20.5748212 19.99083177 20.5748212 21 18 C21.33 18 21.66 18 22 18 C22.09765625 24.15234375 22.09765625 24.15234375 22 26 C21 27 21 27 18.95874023 27.11352539 C18.08419189 27.10828857 17.20964355 27.10305176 16.30859375 27.09765625 C15.36435547 27.09443359 14.42011719 27.09121094 13.44726562 27.08789062 C11.95743164 27.07532227 11.95743164 27.07532227 10.4375 27.0625 C9.44041016 27.05798828 8.44332031 27.05347656 7.41601562 27.04882812 C4.94395151 27.03700007 2.47200482 27.02051849 0 27 C0 26.34 0 25.68 0 25 C0.66 24.67 1.32 24.34 2 24 C2.94137255 21.17588235 3.11725382 19.47081968 3.09765625 16.55078125 C3.09443359 15.70322266 3.09121094 14.85566406 3.08789062 13.98242188 C3.07951172 13.10134766 3.07113281 12.22027344 3.0625 11.3125 C3.05798828 10.41982422 3.05347656 9.52714844 3.04882812 8.60742188 C3.03704983 6.40488013 3.02060164 4.20247401 3 2 C2.01 1.67 1.02 1.34 0 1 C0 0.67 0 0.34 0 0 Z " fill="#131313" transform="translate(511,64)"/>
<path d="M0 0 C6.6 0 13.2 0 20 0 C20 2.31 20 4.62 20 7 C19.34 7 18.68 7 18 7 C17.7525 6.0409375 17.7525 6.0409375 17.5 5.0625 C16.218214 2.83880759 16.218214 2.83880759 14.0859375 2.51171875 C12.06424845 2.2724022 10.03158061 2.13106972 8 2 C8 5.3 8 8.6 8 12 C9.65 11.67 11.3 11.34 13 11 C13.33 10.01 13.66 9.02 14 8 C14.66 8 15.32 8 16 8 C16 11.3 16 14.6 16 18 C15.34 17.67 14.68 17.34 14 17 C14 16.01 14 15.02 14 14 C12.02 14 10.04 14 8 14 C8.33 17.63 8.66 21.26 9 25 C13.08051007 24.87205026 13.08051007 24.87205026 17 24 C19.40521237 21.06057006 19.40521237 21.06057006 21 18 C21.66 18 22.32 18 23 18 C22.67 20.97 22.34 23.94 22 27 C14.74 27 7.48 27 0 27 C0 26.34 0 25.68 0 25 C0.99 24.67 1.98 24.34 3 24 C3.08703823 20.56265937 3.14040272 17.12560163 3.1875 13.6875 C3.21263672 12.71103516 3.23777344 11.73457031 3.26367188 10.72851562 C3.27333984 9.79072266 3.28300781 8.85292969 3.29296875 7.88671875 C3.3086792 7.02264404 3.32438965 6.15856934 3.34057617 5.26831055 C3.16532747 2.57105069 3.16532747 2.57105069 0 0 Z " fill="#131313" transform="translate(439,137)"/>
<path d="M0 0 C2.66275067 2.33847792 3.84090535 4.54445546 5.15625 7.81640625 C5.53910156 8.74517578 5.92195312 9.67394531 6.31640625 10.63085938 C7.10682498 12.5886457 7.89588321 14.54698184 8.68359375 16.50585938 C9.25787109 17.89708008 9.25787109 17.89708008 9.84375 19.31640625 C10.18599609 20.16662354 10.52824219 21.01684082 10.88085938 21.89282227 C11.95099945 24.31013801 11.95099945 24.31013801 15 26 C18.19806665 26.4603764 18.19806665 26.4603764 21.6875 26.625 C22.86699219 26.69976562 24.04648437 26.77453125 25.26171875 26.8515625 C26.61716797 26.92503906 26.61716797 26.92503906 28 27 C28 27.33 28 27.66 28 28 C20.08 28 12.16 28 4 28 C3.67 27.34 3.34 26.68 3 26 C3.99 25.34 4.98 24.68 6 24 C5.34 22.35 4.68 20.7 4 19 C1.03 19 -1.94 19 -5 19 C-5.67801034 21.90073181 -5.67801034 21.90073181 -6 25 C-5.34 25.66 -4.68 26.32 -4 27 C-5 28 -5 28 -8.5625 28.0625 C-9.696875 28.041875 -10.83125 28.02125 -12 28 C-12 27.01 -12 26.02 -12 25 C-11.34 25 -10.68 25 -10 25 C-9.649375 23.845 -9.29875 22.69 -8.9375 21.5 C-6.49830724 14.12321802 -3.17224216 7.08322565 0 0 Z M-1 7 C-1.99 9.97 -2.98 12.94 -4 16 C-1.69 16 0.62 16 3 16 C2.01 13.03 1.02 10.06 0 7 C-0.33 7 -0.66 7 -1 7 Z " fill="#3B3B3B" transform="translate(637,63)"/>
<path d="M0 0 C4.29 0 8.58 0 13 0 C13 0.66 13 1.32 13 2 C11.68 2 10.36 2 9 2 C9.10959718 5.29237055 9.24028931 8.58356887 9.375 11.875 C9.4059375 12.81214844 9.436875 13.74929687 9.46875 14.71484375 C9.50742187 15.61074219 9.54609375 16.50664062 9.5859375 17.4296875 C9.6173584 18.25710449 9.6487793 19.08452148 9.68115234 19.93701172 C9.82599137 22.21986085 9.82599137 22.21986085 12 24 C15.71080071 24.41231119 18.04963017 24.63469928 21.2109375 22.5234375 C23.82950896 18.82999391 23.44001326 15.65684591 23.25 11.25 C23.23195313 10.45722656 23.21390625 9.66445312 23.1953125 8.84765625 C23.14833082 6.89791652 23.07659044 4.94880122 23 3 C22.01 2.67 21.02 2.34 20 2 C20 1.34 20 0.68 20 0 C22.97 0 25.94 0 29 0 C29 0.66 29 1.32 29 2 C28.01 2.495 28.01 2.495 27 3 C26.96261719 4.16917969 26.92523437 5.33835938 26.88671875 6.54296875 C26.8210372 8.09117675 26.75459061 9.63935242 26.6875 11.1875 C26.66494141 11.95642578 26.64238281 12.72535156 26.61914062 13.51757812 C26.40228535 18.11096706 25.95552545 21.27224699 23 25 C19.77252945 27.15164703 18.79494361 27.27245079 15.0625 27.25 C14.20785156 27.25515625 13.35320313 27.2603125 12.47265625 27.265625 C9.78583807 26.97699366 8.22951495 26.52165599 6 25 C4.19443107 22.05919312 3.75839349 19.87888165 3.8046875 16.453125 C3.81113281 15.60878906 3.81757813 14.76445312 3.82421875 13.89453125 C3.84097656 13.02183594 3.85773438 12.14914063 3.875 11.25 C3.88402344 10.36183594 3.89304687 9.47367188 3.90234375 8.55859375 C3.92585423 6.37211942 3.95871501 4.18619906 4 2 C2.68 2 1.36 2 0 2 C0 1.34 0 0.68 0 0 Z " fill="#373737" transform="translate(503,137)"/>
<path d="M0 0 C2.5 1 2.5 1 4 2 C4.99 1.34 5.98 0.68 7 0 C7 3.63 7 7.26 7 11 C6.34 11 5.68 11 5 11 C4.54625 9.865625 4.0925 8.73125 3.625 7.5625 C2.42904194 3.95278308 2.42904194 3.95278308 0 3 C-3.45800359 2.58326793 -3.45800359 2.58326793 -7 3 C-10.28933344 6.179689 -10.96503568 9.28905881 -11.1875 13.8125 C-11.15327125 17.51605059 -10.3828833 20.54279174 -9 24 C-5.23696384 24.81163525 -2.81256003 25.32502401 0.8125 23.875 C3.29502729 21.74711947 4.07739356 20.10331257 5 17 C5.66 17 6.32 17 7 17 C7 20.3 7 23.6 7 27 C6.01 26.34 5.02 25.68 4 25 C3.175 25.515625 2.35 26.03125 1.5 26.5625 C-2.77756341 28.3193564 -5.61107777 28.33929998 -10 27 C-13.54254148 24.76665863 -15.40928423 22.83313447 -17 19 C-17.78168343 13.41654692 -17.28213652 8.70439568 -14 4 C-9.26382704 -0.18545517 -6.05437238 -0.585907 0 0 Z " fill="#292929" transform="translate(619,100)"/>
<path d="M0 0 C3.4375 1.5 3.4375 1.5 6 3 C6.33 2.01 6.66 1.02 7 0 C8 1 8 1 8.09765625 3.28515625 C8.08605469 4.20167969 8.07445312 5.11820312 8.0625 6.0625 C8.05347656 6.98160156 8.04445313 7.90070313 8.03515625 8.84765625 C8.02355469 9.55792969 8.01195312 10.26820312 8 11 C7.34 11 6.68 11 6 11 C5.731875 9.865625 5.46375 8.73125 5.1875 7.5625 C4.795625 6.386875 4.40375 5.21125 4 4 C0.44646071 2.8154869 -2.27013478 2.73358106 -6 3 C-8.61593153 4.83115207 -8.96989455 5.90968366 -10 9 C-10.11792999 10.64279217 -10.17511674 12.29052694 -10.1875 13.9375 C-10.20167969 14.79214844 -10.21585938 15.64679688 -10.23046875 16.52734375 C-9.98378068 19.17401407 -9.39589219 20.75465028 -8 23 C-5.45730966 24.90701775 -4.14400107 25.00587759 -0.9375 24.875 C2.45852857 23.86341702 3.29907155 23.0437667 5 20 C5.33 19.01 5.66 18.02 6 17 C6.66 17 7.32 17 8 17 C8 20.3 8 23.6 8 27 C7.01 26.34 6.02 25.68 5 25 C4.175 25.515625 3.35 26.03125 2.5 26.5625 C-1.64772449 28.2660297 -4.7926622 28.38850512 -9 27 C-12.45979784 24.92262679 -14.69404971 22.91785087 -16 19 C-16.52438572 14.00544092 -16.55003096 10.12043344 -14.3125 5.5625 C-9.89972789 0.67267144 -6.6276687 -0.69764934 0 0 Z " fill="#1E1E1E" transform="translate(681,100)"/>
<path d="M0 0 C4.29 0 8.58 0 13 0 C12.67 0.66 12.34 1.32 12 2 C11.01 2 10.02 2 9 2 C9.08064635 5.2926882 9.19350279 8.58349221 9.3125 11.875 C9.33505859 12.81214844 9.35761719 13.74929687 9.38085938 14.71484375 C9.41630859 15.61074219 9.45175781 16.50664063 9.48828125 17.4296875 C9.51446533 18.25710449 9.54064941 19.08452148 9.56762695 19.93701172 C9.83096637 22.39327932 9.83096637 22.39327932 13 24 C15.29714187 24.02639829 15.29714187 24.02639829 17.6875 23.625 C18.49574219 23.51414062 19.30398438 23.40328125 20.13671875 23.2890625 C20.75160156 23.19367188 21.36648438 23.09828125 22 23 C22.92092281 18.34462644 23.12205997 13.85314567 23.0625 9.125 C23.05798828 8.43664062 23.05347656 7.74828125 23.04882812 7.0390625 C23.03716336 5.35933665 23.01923271 3.67965625 23 2 C22.01 2 21.02 2 20 2 C20 1.34 20 0.68 20 0 C22.97 0 25.94 0 29 0 C29 0.66 29 1.32 29 2 C28.01 2 27.02 2 26 2 C25.9906543 2.58491211 25.98130859 3.16982422 25.97167969 3.77246094 C25.91786721 6.4324858 25.83424551 9.09077222 25.75 11.75 C25.72873047 13.13058594 25.72873047 13.13058594 25.70703125 14.5390625 C25.45901739 21.38424496 25.45901739 21.38424496 23.078125 24.578125 C19.13971259 27.27282823 15.68950989 27.51305578 11 27 C7.41447119 25.36312815 6.20684945 24.31027417 4 21 C3.77294922 18.9152832 3.77294922 18.9152832 3.8046875 16.55078125 C3.81113281 15.70322266 3.81757813 14.85566406 3.82421875 13.98242188 C3.84097656 13.10134766 3.85773438 12.22027344 3.875 11.3125 C3.88402344 10.41982422 3.89304687 9.52714844 3.90234375 8.60742188 C3.92590252 6.40467686 3.95879671 4.20247412 4 2 C2.68 2 1.36 2 0 2 C0 1.34 0 0.68 0 0 Z " fill="#363636" transform="translate(409,64)"/>
<path d="M0 0 C8.58 0 17.16 0 26 0 C26 2.31 26 4.62 26 7 C25.34 7 24.68 7 24 7 C23.67 5.35 23.34 3.7 23 2 C20.69 2 18.38 2 16 2 C16 9.59 16 17.18 16 25 C17.32 25 18.64 25 20 25 C20 25.66 20 26.32 20 27 C15.38 27 10.76 27 6 27 C6 26.34 6 25.68 6 25 C7.32 24.67 8.64 24.34 10 24 C10.33 16.74 10.66 9.48 11 2 C8.69 2.33 6.38 2.66 4 3 C2.48705712 4.93597032 2.48705712 4.93597032 2 7 C1.34 7 0.68 7 0 7 C0 4.69 0 2.38 0 0 Z " fill="#202020" transform="translate(547,137)"/>
<path d="M0 0 C2.375 1 2.375 1 4 2 C4.33 1.34 4.66 0.68 5 0 C6 1 6 1 6.0625 4.5625 C6.041875 5.696875 6.02125 6.83125 6 8 C3 7 3 7 1.625 4.9375 C0.13056566 2.69436512 0.13056566 2.69436512 -2.6875 2.75 C-3.450625 2.8325 -4.21375 2.915 -5 3 C-5 4.65 -5 6.3 -5 8 C-4.22914063 8.39832031 -3.45828125 8.79664062 -2.6640625 9.20703125 C-1.66117188 9.73683594 -0.65828125 10.26664063 0.375 10.8125 C1.87160156 11.59560547 1.87160156 11.59560547 3.3984375 12.39453125 C6 14 6 14 8 17 C7.82110557 20.33936274 7.61437281 22.97604532 5.875 25.875 C2.96417908 27.62149255 0.3568842 27.82332188 -3 28 C-5.25 27 -5.25 27 -7 26 C-7.99 26.33 -8.98 26.66 -10 27 C-10 24.03 -10 21.06 -10 18 C-9.34 18 -8.68 18 -8 18 C-7.62875 18.969375 -7.2575 19.93875 -6.875 20.9375 C-5.2982745 24.28831292 -5.2982745 24.28831292 -1.9375 24.875 C-0.2926279 24.94499456 1.35363932 25 3 25 C3.83939269 22.2607041 3.83939269 22.2607041 3 19 C0.60475973 17.20026146 -1.85305425 15.85428398 -4.51953125 14.4921875 C-7.15803524 12.90492998 -8.47990481 11.66397952 -10 9 C-9.875 5.375 -9.875 5.375 -9 2 C-5.51195905 -0.32536063 -4.09859246 -0.33457898 0 0 Z " fill="#272727" transform="translate(654,100)"/>
<path d="M0 0 C0.66 -0.33 1.32 -0.66 2 -1 C2 1.64 2 4.28 2 7 C1.34 7 0.68 7 0 7 C-0.433125 6.175 -0.86625 5.35 -1.3125 4.5 C-1.869375 3.675 -2.42625 2.85 -3 2 C-5.62694422 1.58219121 -5.62694422 1.58219121 -8 2 C-8.33 3.32 -8.66 4.64 -9 6 C-7.453125 6.8353125 -7.453125 6.8353125 -5.875 7.6875 C-2.13923516 9.86352595 0.99876012 11.85235817 4 15 C4.58839926 18.72652863 4.47605885 20.93586846 2.9375 24.375 C0.05864692 26.78952194 -2.29694855 26.87230857 -6 27 C-8.75 26.0625 -8.75 26.0625 -11 25 C-11.99 25 -12.98 25 -14 25 C-14 22.36 -14 19.72 -14 17 C-11 18 -11 18 -9.625 20.5 C-8.21683782 23.19169956 -8.21683782 23.19169956 -5.5 24 C-2.98738097 24.22834427 -2.98738097 24.22834427 -1.1875 22.8125 C0.36535084 20.80350374 0.36535084 20.80350374 0 17 C-0.680625 16.7525 -1.36125 16.505 -2.0625 16.25 C-11.35135135 12.2972973 -11.35135135 12.2972973 -13 9 C-13.3125 5.5625 -13.3125 5.5625 -13 2 C-9.45830959 -2.22278472 -4.86273737 -1.62091246 0 0 Z " fill="#292929" transform="translate(424,101)"/>
<path d="M0 0 C2.94305901 -0.31342481 5.13288378 -0.52670771 8 0 C10.25475405 2.12863548 11.65398944 3.73122136 13.3125 6.25 C13.72822266 6.83652344 14.14394531 7.42304687 14.57226562 8.02734375 C15.73418536 9.67139552 16.86801394 11.33519634 18 13 C18.99 14.32 19.98 15.64 21 17 C21.33 12.38 21.66 7.76 22 3 C20.68 2.67 19.36 2.34 18 2 C18 1.34 18 0.68 18 0 C21.3 0 24.6 0 28 0 C28 0.66 28 1.32 28 2 C27.01 2.66 26.02 3.32 25 4 C24.49039309 6.51385259 24.49039309 6.51385259 24.48828125 9.4453125 C24.45283203 10.52167969 24.41738281 11.59804687 24.38085938 12.70703125 C24.35830078 13.83496094 24.33574219 14.96289062 24.3125 16.125 C24.27833984 17.26066406 24.24417969 18.39632812 24.20898438 19.56640625 C24.12630498 22.37750579 24.05722063 25.18828553 24 28 C18.89056882 24.47824518 15.7253962 19.86828494 12.1875 14.875 C11.59001953 14.05128906 10.99253906 13.22757813 10.37695312 12.37890625 C6 6.26617857 6 6.26617857 6 4 C5.34 4 4.68 4 4 4 C4 3.34 4 2.68 4 2 C2.35 2 0.7 2 -1 2 C-0.67 1.34 -0.34 0.68 0 0 Z " fill="#262626" transform="translate(457,100)"/>
<path d="M0 0 C0.91007813 0.10183594 1.82015625 0.20367187 2.7578125 0.30859375 C3.45648437 0.39238281 4.15515625 0.47617187 4.875 0.5625 C4.875 3.2025 4.875 5.8425 4.875 8.5625 C3.33025864 7.01775864 1.85176943 5.53293382 0.5 3.8125 C-1.14301632 2.24809459 -1.14301632 2.24809459 -3.8125 2.875 C-4.575625 3.101875 -5.33875 3.32875 -6.125 3.5625 C-6.125 5.2125 -6.125 6.8625 -6.125 8.5625 C-5.25875 8.81 -4.3925 9.0575 -3.5 9.3125 C0.3635269 10.74343589 3.92849564 12.61599564 6.875 15.5625 C7.16303699 18.49087603 7.36193199 20.71284122 6.875 23.5625 C4.35174482 26.53103551 2.87375581 27.45393959 -1 27.875 C-4.39463231 27.53553677 -7.75625951 27.10149848 -11.125 26.5625 C-11.125 23.5925 -11.125 20.6225 -11.125 17.5625 C-10.135 17.8925 -9.145 18.2225 -8.125 18.5625 C-6.9375 21.125 -6.9375 21.125 -6.125 23.5625 C-3.815 23.8925 -1.505 24.2225 0.875 24.5625 C1.535 22.9125 2.195 21.2625 2.875 19.5625 C2.35550781 19.24796875 1.83601562 18.9334375 1.30078125 18.609375 C-0.8574772 17.28489846 -2.99175806 15.92682849 -5.125 14.5625 C-6.115 13.94375 -7.105 13.325 -8.125 12.6875 C-10.125 10.5625 -10.125 10.5625 -10.625 7 C-10.125 3.5625 -10.125 3.5625 -8.75 1.6875 C-5.54162927 -0.53367974 -3.83944425 -0.4430128 0 0 Z " fill="#202020" transform="translate(575.125,63.4375)"/>
<path d="M0 0 C2.97 0 5.94 0 9 0 C9 0.66 9 1.32 9 2 C8.54947266 2.43618652 8.09894531 2.87237305 7.63476562 3.32177734 C5.65418706 5.3550057 4.89390094 7.21975767 3.84375 9.8515625 C3.26947266 11.25148438 3.26947266 11.25148438 2.68359375 12.6796875 C1.8918275 14.6499573 1.10278194 16.62132252 0.31640625 18.59375 C-0.25787109 19.98980469 -0.25787109 19.98980469 -0.84375 21.4140625 C-1.18599609 22.2695166 -1.52824219 23.1249707 -1.88085938 24.00634766 C-3 26 -3 26 -6 27 C-7.83944626 23.04447897 -9.67051553 19.08513715 -11.5 15.125 C-12.28697266 13.43310547 -12.28697266 13.43310547 -13.08984375 11.70703125 C-13.83427734 10.09248047 -13.83427734 10.09248047 -14.59375 8.4453125 C-15.05458984 7.45031738 -15.51542969 6.45532227 -15.99023438 5.43017578 C-17 3 -17 3 -17 1 C-15.02 1 -13.04 1 -11 1 C-10.67386719 1.88042969 -10.34773438 2.76085937 -10.01171875 3.66796875 C-9.57472656 4.82941406 -9.13773437 5.99085937 -8.6875 7.1875 C-8.25824219 8.33605469 -7.82898438 9.48460938 -7.38671875 10.66796875 C-6.14209582 13.65856977 -4.74669146 16.28007869 -3 19 C-2.18167278 17.10667466 -1.37057732 15.21022267 -0.5625 13.3125 C-0.11003906 12.25675781 0.34242188 11.20101562 0.80859375 10.11328125 C1.85447455 7.38027471 2.53520748 4.87957663 3 2 C2.01 1.67 1.02 1.34 0 1 C0 0.67 0 0.34 0 0 Z " fill="#282828" transform="translate(501,64)"/>
<path d="M0 0 C5.61 0 11.22 0 17 0 C17 0.33 17 0.66 17 1 C14.03 1 11.06 1 8 1 C8 4.3 8 7.6 8 11 C9.65 11 11.3 11 13 11 C13.66 9.68 14.32 8.36 15 7 C16 8 16 8 16.09765625 10.06640625 C16.08605469 10.89011719 16.07445312 11.71382812 16.0625 12.5625 C16.05347656 13.38878906 16.04445313 14.21507813 16.03515625 15.06640625 C16.02355469 15.70449219 16.01195312 16.34257813 16 17 C15.34 17 14.68 17 14 17 C13.67 15.68 13.34 14.36 13 13 C11.35 13 9.7 13 8 13 C8.33 16.3 8.66 19.6 9 23 C9.99 23.33 10.98 23.66 12 24 C12 24.66 12 25.32 12 26 C8.04 26 4.08 26 0 26 C0 25.34 0 24.68 0 24 C0.99 24 1.98 24 3 24 C3 16.41 3 8.82 3 1 C2.01 0.67 1.02 0.34 0 0 Z " fill="#121212" transform="translate(496,101)"/>
<path d="M0 0 C3.14581302 -0.02948491 6.29158963 -0.04695916 9.4375 -0.0625 C10.31599609 -0.07087891 11.19449219 -0.07925781 12.09960938 -0.08789062 C12.97294922 -0.09111328 13.84628906 -0.09433594 14.74609375 -0.09765625 C15.93223267 -0.10551147 15.93223267 -0.10551147 17.14233398 -0.11352539 C21.10915017 0.04406278 25.05433606 0.5615929 29 1 C29.33 8.59 29.66 16.18 30 24 C31.32 24.33 32.64 24.66 34 25 C34 25.66 34 26.32 34 27 C29.71 27 25.42 27 21 27 C21 26.34 21 25.68 21 25 C22.32 25 23.64 25 25 25 C24.67 17.74 24.34 10.48 24 3 C23.01 2.67 22.02 2.34 21 2 C21 3.98 21 5.96 21 8 C20.34 8 19.68 8 19 8 C18.71125 7.38125 18.4225 6.7625 18.125 6.125 C17.06279958 3.86674235 17.06279958 3.86674235 15 2 C12.43083343 1.69400937 9.95241616 1.48912913 7.375 1.375 C6.66859375 1.33632812 5.9621875 1.29765625 5.234375 1.2578125 C3.49001476 1.16352276 1.74504309 1.08067109 0 1 C0 0.67 0 0.34 0 0 Z " fill="#242424" transform="translate(496,100)"/>
<path d="M0 0 C3.96 0 7.92 0 12 0 C12.33 0.66 12.66 1.32 13 2 C11.68 2 10.36 2 9 2 C9 9.59 9 17.18 9 25 C10.32 25.33 11.64 25.66 13 26 C13 26.33 13 26.66 13 27 C8.71 27 4.42 27 0 27 C0 26.34 0 25.68 0 25 C1.32 25 2.64 25 4 25 C3.67 17.74 3.34 10.48 3 3 C2.01 2.67 1.02 2.34 0 2 C0 1.34 0 0.68 0 0 Z " fill="#3C3C3C" transform="translate(629,100)"/>
<path d="M0 0 C4.29 0 8.58 0 13 0 C12.67 0.66 12.34 1.32 12 2 C11.01 2 10.02 2 9 2 C9.08060591 5.62592996 9.19346817 9.25014402 9.3125 12.875 C9.33505859 13.90753906 9.35761719 14.94007812 9.38085938 16.00390625 C9.41630859 16.99003906 9.45175781 17.97617188 9.48828125 18.9921875 C9.51446533 19.90339355 9.54064941 20.81459961 9.56762695 21.75341797 C9.71031006 22.49479004 9.85299316 23.23616211 10 24 C10.99 24.66 11.98 25.32 13 26 C12 27 12 27 9.27734375 27.09765625 C8.17519531 27.08605469 7.07304688 27.07445313 5.9375 27.0625 C4.83277344 27.05347656 3.72804688 27.04445313 2.58984375 27.03515625 C1.30787109 27.01775391 1.30787109 27.01775391 0 27 C0 26.34 0 25.68 0 25 C0.99 24.67 1.98 24.34 3 24 C3.33 16.74 3.66 9.48 4 2 C2.68 1.67 1.36 1.34 0 1 C0 0.67 0 0.34 0 0 Z " fill="#3C3C3C" transform="translate(584,64)"/>
<path d="M0 0 C3.96 0 7.92 0 12 0 C12 0.66 12 1.32 12 2 C10.68 2 9.36 2 8 2 C8.33 9.26 8.66 16.52 9 24 C9.99 24.33 10.98 24.66 12 25 C12 25.66 12 26.32 12 27 C8.04 27 4.08 27 0 27 C-0.33 26.34 -0.66 25.68 -1 25 C0.32 25 1.64 25 3 25 C3 17.41 3 9.82 3 2 C2.01 2 1.02 2 0 2 C0 1.34 0 0.68 0 0 Z " fill="#3B3B3B" transform="translate(534,137)"/>
<path d="M0 0 C1.65 0 3.3 0 5 0 C5.33 7.59 5.66 15.18 6 23 C6.99 23.33 7.98 23.66 9 24 C9 24.66 9 25.32 9 26 C5.04 26 1.08 26 -3 26 C-3.33 25.34 -3.66 24.68 -4 24 C-3.01 23.67 -2.02 23.34 -1 23 C-0.67 15.41 -0.34 7.82 0 0 Z " fill="#373737" transform="translate(472,65)"/>
<path d="M0 0 C3.06432153 0 5.14944557 0.22409529 7.46875 2.33984375 C11.09444676 6.65062856 12.30715855 9.2506265 12.21484375 14.90234375 C11.75942749 19.34886248 10.0374364 22.15367031 6.625 24.9375 C3.57486906 26.17207681 2.09556943 25.97289325 -1 25 C-0.01 24.34 0.98 23.68 2 23 C5.20855177 20.16166574 5.92315186 18.01823783 6.25 13.6875 C5.97399155 9.61637542 5.27564528 7.37423265 3 4 C0.44278263 2.57442644 0.44278263 2.57442644 -2 2 C-1.34 1.34 -0.68 0.68 0 0 Z " fill="#303030" transform="translate(667,64)"/>
<path d="M0 0 C3.44050866 0.22936724 5.39161922 0.39161922 7.875 2.875 C9.58733438 7.6314844 9.89709321 12.01614883 9 17 C6.75897949 21.03101802 4.39019909 23.5366003 0 25 C-2.33299825 25.03954234 -4.66708189 25.04401732 -7 25 C-4.97172193 23.98586097 -2.97304011 22.98889887 -0.875 22.125 C1.52161359 20.68703184 1.97060714 19.58462277 3 17 C3.73020332 10.7221481 3.51943369 5.4257936 0 0 Z " fill="#232323" transform="translate(593,139)"/>
<path d="M0 0 C0.66 0 1.32 0 2 0 C3.83629082 4.1445297 5.66853742 8.29083471 7.5 12.4375 C8.28697266 14.21350586 8.28697266 14.21350586 9.08984375 16.02539062 C9.58613281 17.15009766 10.08242188 18.27480469 10.59375 19.43359375 C11.28500977 20.99678345 11.28500977 20.99678345 11.99023438 22.59155273 C13 25 13 25 13 26 C11.02 26 9.04 26 7 26 C6.67386719 25.14277344 6.34773437 24.28554687 6.01171875 23.40234375 C5.57472656 22.25894531 5.13773438 21.11554688 4.6875 19.9375 C4.00880859 18.15472656 4.00880859 18.15472656 3.31640625 16.3359375 C2.33325643 13.84451332 1.29412653 11.46600663 0.125 9.0625 C-1.16266728 5.55718351 -0.95707585 3.56728271 0 0 Z " fill="#1F1F1F" transform="translate(557,100)"/>
<path d="M0 0 C2.64 0 5.28 0 8 0 C8 7.59 8 15.18 8 23 C8.66 23 9.32 23 10 23 C10 23.66 10 24.32 10 25 C7.03 25 4.06 25 1 25 C1.99 24.67 2.98 24.34 4 24 C4 16.41 4 8.82 4 1 C2.68 0.67 1.36 0.34 0 0 Z " fill="#1D1D1D" transform="translate(409,138)"/>
<path d="M0 0 C-0.33 0.969375 -0.66 1.93875 -1 2.9375 C-2.72344714 8.99418566 -2.8821332 14.38441507 0 20 C0 20.99 0 21.98 0 23 C-3.26189156 22.4376049 -4.91134848 21.5859495 -7 19 C-8.45167188 14.64498437 -8.64146467 10.5466452 -8 6 C-6.13431059 2.33345209 -4.33754578 0 0 0 Z " fill="#232323" transform="translate(482,139)"/>
<path d="M0 0 C1 3 1 3 0 6 C-0.40813605 10.63077438 -0.56808336 14.70152375 1.3125 19 C3.02463397 21.21735853 3.02463397 21.21735853 6 23 C4.375 23.75 4.375 23.75 2 24 C-1.95538053 21.86409452 -4.37143643 20.198407 -6 16 C-6.58004483 12.25759536 -6.66288067 8.73422778 -6 5 C-4.20311933 2.55540653 -2.64895221 1.60040863 0 0 Z " fill="#252525" transform="translate(699,103)"/>
<path d="M0 0 C0.33 0 0.66 0 1 0 C1 3.63 1 7.26 1 11 C3.31 11 5.62 11 8 11 C8.27070312 11.58523437 8.54140625 12.17046875 8.8203125 12.7734375 C9.99141283 14.98379242 11.25775577 16.72285264 12.875 18.625 C13.36742187 19.21539062 13.85984375 19.80578125 14.3671875 20.4140625 C16.12154783 22.11805842 17.77028708 23.02510387 20 24 C20 24.66 20 25.32 20 26 C15.8853081 26.40340117 13.7644606 26.59665217 10.4375 24 C7.96581197 20.95792242 5.60609115 17.86395908 3.33203125 14.671875 C2.08643118 12.8678526 2.08643118 12.8678526 0 12 C0 8.04 0 4.08 0 0 Z " fill="#434343" transform="translate(543,65)"/>
<path d="M0 0 C11.55 0 23.1 0 35 0 C35 0.66 35 1.32 35 2 C34.22285645 1.99476318 33.44571289 1.98952637 32.64501953 1.98413086 C29.13835451 1.96339844 25.63170237 1.95035179 22.125 1.9375 C20.90167969 1.92912109 19.67835938 1.92074219 18.41796875 1.91210938 C17.25136719 1.90888672 16.08476562 1.90566406 14.8828125 1.90234375 C13.80402832 1.89710693 12.72524414 1.89187012 11.61376953 1.88647461 C9.01767814 1.82116894 9.01767814 1.82116894 7 3 C6.67 10.92 6.34 18.84 6 27 C5.34 26.67 4.68 26.34 4 26 C4.33 23.69 4.66 21.38 5 19 C4.34 18.67 3.68 18.34 3 18 C3 13.05 3 8.1 3 3 C2.01 2.67 1.02 2.34 0 2 C0 1.34 0 0.68 0 0 Z " fill="#6E6E6E" transform="translate(458,64)"/>
<path d="M0 0 C2.20770805 -0.08165496 4.41630425 -0.13948488 6.625 -0.1875 C7.85476563 -0.22230469 9.08453125 -0.25710937 10.3515625 -0.29296875 C14.31581395 0.02535979 16.66226809 0.86963897 20 3 C21.1875 5.875 21.1875 5.875 21 9 C18.84614331 11.61955544 17.04053406 13.47973297 14 15 C14 14.34 14 13.68 14 13 C13.34 12.67 12.68 12.34 12 12 C12.515625 11.608125 13.03125 11.21625 13.5625 10.8125 C14.2740625 9.9153125 14.2740625 9.9153125 15 9 C14.76956136 6.34533951 14.76956136 6.34533951 14 4 C12.02 3.34 10.04 2.68 8 2 C8 5.63 8 9.26 8 13 C7.67 13 7.34 13 7 13 C7 9.04 7 5.08 7 1 C4.69 1 2.38 1 0 1 C0 0.67 0 0.34 0 0 Z " fill="#343434" transform="translate(518,100)"/>
<path d="M0 0 C8.58 0 17.16 0 26 0 C26 2.31 26 4.62 26 7 C25.34 7 24.68 7 24 7 C23.67 5.35 23.34 3.7 23 2 C20.69 2 18.38 2 16 2 C16 9.26 16 16.52 16 24 C15.67 24 15.34 24 15 24 C15 16.41 15 8.82 15 1 C11.37 1.66 7.74 2.32 4 3 C3.34 4.32 2.68 5.64 2 7 C1.34 7 0.68 7 0 7 C0 4.69 0 2.38 0 0 Z " fill="#838383" transform="translate(547,137)"/>
<path d="M0 0 C2.97 0 5.94 0 9 0 C9 0.66 9 1.32 9 2 C8.01 2.495 8.01 2.495 7 3 C6.96261719 4.16917969 6.92523437 5.33835938 6.88671875 6.54296875 C6.8210372 8.09117675 6.75459061 9.63935242 6.6875 11.1875 C6.66494141 11.95642578 6.64238281 12.72535156 6.61914062 13.51757812 C6.40228535 18.11096706 5.95552545 21.27224699 3 25 C-0.31371 27.20914 -1.3446021 27.22481553 -5.1875 27.125 C-6.08855469 27.10695312 -6.98960937 27.08890625 -7.91796875 27.0703125 C-8.60503906 27.04710937 -9.29210937 27.02390625 -10 27 C-6.80230264 24.86820176 -4.52783506 24.36753633 -0.83984375 23.66015625 C1.38490539 23.06811776 1.38490539 23.06811776 3 20 C3.27356843 18.06862318 3.27356843 18.06862318 3.1953125 15.98828125 C3.18886719 15.23095703 3.18242188 14.47363281 3.17578125 13.69335938 C3.15902344 12.90767578 3.14226563 12.12199219 3.125 11.3125 C3.11597656 10.51521484 3.10695313 9.71792969 3.09765625 8.89648438 C3.07411585 6.930861 3.03824547 4.96539225 3 3 C2.01 2.67 1.02 2.34 0 2 C0 1.34 0 0.68 0 0 Z " fill="#555555" transform="translate(523,137)"/>
<path d="M0 0 C6.6 0 13.2 0 20 0 C20 2.31 20 4.62 20 7 C19.34 7 18.68 7 18 7 C17.7525 6.0409375 17.7525 6.0409375 17.5 5.0625 C16.218214 2.83880759 16.218214 2.83880759 14.0859375 2.51171875 C12.06424845 2.2724022 10.03158061 2.13106972 8 2 C8 4.97 8 7.94 8 11 C9.98 11 11.96 11 14 11 C14 10.01 14 9.02 14 8 C14.66 8 15.32 8 16 8 C16 10.97 16 13.94 16 17 C15.34 17 14.68 17 14 17 C13.67 15.35 13.34 13.7 13 12 C11.02 12 9.04 12 7 12 C7 8.37 7 4.74 7 1 C5.02 1.33 3.04 1.66 1 2 C0.67 1.34 0.34 0.68 0 0 Z " fill="#5E5E5E" transform="translate(511,64)"/>
<path d="M0 0 C0.66 0 1.32 0 2 0 C2 0.66 2 1.32 2 2 C2.66 2.33 3.32 2.66 4 3 C4 9.27 4 15.54 4 22 C5.32 22.66 6.64 23.32 8 24 C8 24.33 8 24.66 8 25 C1.07 25 -5.86 25 -13 25 C-13 24.34 -13 23.68 -13 23 C-12.39671875 23.01160156 -11.7934375 23.02320312 -11.171875 23.03515625 C-10.37265625 23.04417969 -9.5734375 23.05320312 -8.75 23.0625 C-7.96109375 23.07410156 -7.1721875 23.08570312 -6.359375 23.09765625 C-3.69521858 23.06703502 -3.69521858 23.06703502 0 22 C0 14.74 0 7.48 0 0 Z " fill="#656565" transform="translate(459,102)"/>
<path d="M0 0 C0.66 0.99 1.32 1.98 2 3 C1.3203125 5.26171875 1.3203125 5.26171875 0.125 7.6875 C-0.26429688 8.49574219 -0.65359375 9.30398437 -1.0546875 10.13671875 C-1.36664062 10.75160156 -1.67859375 11.36648437 -2 12 C0.64 11.67 3.28 11.34 6 11 C6 11.99 6 12.98 6 14 C1.545 14.495 1.545 14.495 -3 15 C-3.67801034 17.90073181 -3.67801034 17.90073181 -4 21 C-3.34 21.66 -2.68 22.32 -2 23 C-3 24 -3 24 -6.5625 24.0625 C-7.696875 24.041875 -8.83125 24.02125 -10 24 C-10 23.01 -10 22.02 -10 21 C-9.34 21 -8.68 21 -8 21 C-7.608125 19.7625 -7.21625 18.525 -6.8125 17.25 C-4.86118823 11.36792078 -2.43753821 5.69401218 0 0 Z " fill="#5B5B5B" transform="translate(635,67)"/>
<path d="M0 0 C0.66 0.66 1.32 1.32 2 2 C0.68 4.97 -0.64 7.94 -2 11 C0.64 10.67 3.28 10.34 6 10 C6.33 10.99 6.66 11.98 7 13 C3.7 13.33 0.4 13.66 -3 14 C-3.66 15.98 -4.32 17.96 -5 20 C-4.01 20.33 -3.02 20.66 -2 21 C-2 21.33 -2 21.66 -2 22 C-5.96 22 -9.92 22 -14 22 C-13.67 21.34 -13.34 20.68 -13 20 C-12.20053955 19.88148682 -11.4010791 19.76297363 -10.57739258 19.64086914 C-7.88714241 19.2712466 -7.88714241 19.2712466 -6.69799805 17.14233398 C-6.23453979 15.95619507 -6.23453979 15.95619507 -5.76171875 14.74609375 C-5.41689453 13.89208984 -5.07207031 13.03808594 -4.71679688 12.15820312 C-4.20729492 10.81145508 -4.20729492 10.81145508 -3.6875 9.4375 C-3.32849609 8.53580078 -2.96949219 7.63410156 -2.59960938 6.70507812 C-1.71520474 4.47637844 -0.84976878 2.24208468 0 0 Z " fill="#575757" transform="translate(555,105)"/>
<path d="M0 0 C0.66 0.99 1.32 1.98 2 3 C1.3203125 5.26171875 1.3203125 5.26171875 0.125 7.6875 C-0.26429688 8.49574219 -0.65359375 9.30398437 -1.0546875 10.13671875 C-1.36664063 10.75160156 -1.67859375 11.36648437 -2 12 C0.64 11.67 3.28 11.34 6 11 C6 11.99 6 12.98 6 14 C1.545 14.495 1.545 14.495 -3 15 C-3.66 16.98 -4.32 18.96 -5 21 C-4.01 21 -3.02 21 -2 21 C-2 21.66 -2 22.32 -2 23 C-4.97 23 -7.94 23 -11 23 C-11 22.34 -11 21.68 -11 21 C-10.01 21 -9.02 21 -8 21 C-7.608125 19.7625 -7.21625 18.525 -6.8125 17.25 C-4.86118823 11.36792078 -2.43753821 5.69401218 0 0 Z " fill="#5C5C5C" transform="translate(440,104)"/>
<path d="M0 0 C0.969375 0.144375 1.93875 0.28875 2.9375 0.4375 C4.2916609 0.62504163 5.64582818 0.81253723 7 1 C7.77988281 1.11859375 8.55976563 1.2371875 9.36328125 1.359375 C10.15089844 1.46765625 10.93851562 1.5759375 11.75 1.6875 C12.48734375 1.79449219 13.2246875 1.90148437 13.984375 2.01171875 C16.32139344 2.18285405 16.32139344 2.18285405 19 0 C18.25 4.75 18.25 4.75 16 7 C9.87009923 7.73981561 6.58995672 6.65724076 1.46875 3.2890625 C0.9840625 2.86367187 0.499375 2.43828125 0 2 C0 1.34 0 0.68 0 0 Z " fill="#2E2E2E" transform="translate(491,166)"/>
<path d="M0 0 C2 2 2 2 2.13525391 3.97119141 C2.08288574 4.75671387 2.03051758 5.54223633 1.9765625 6.3515625 C1.925 7.20234375 1.8734375 8.053125 1.8203125 8.9296875 C1.75585938 9.81914063 1.69140625 10.70859375 1.625 11.625 C1.56828125 12.5221875 1.5115625 13.419375 1.453125 14.34375 C1.31145247 16.56328624 1.1600296 18.78172402 1 21 C2.32 21.33 3.64 21.66 5 22 C5 22.66 5 23.32 5 24 C1.7 24 -1.6 24 -5 24 C-4.505 22.515 -4.505 22.515 -4 21 C-3.34 20.67 -2.68 20.34 -2 20 C-1.97494385 19.42967041 -1.9498877 18.85934082 -1.92407227 18.27172852 C-1.80843451 15.70173843 -1.68556376 13.13214473 -1.5625 10.5625 C-1.52318359 9.66466797 -1.48386719 8.76683594 -1.44335938 7.84179688 C-1.40146484 6.98779297 -1.35957031 6.13378906 -1.31640625 5.25390625 C-1.27974854 4.46314697 -1.24309082 3.6723877 -1.20532227 2.85766602 C-1 1 -1 1 0 0 Z " fill="#5E5E5E" transform="translate(444,67)"/>
<path d="M0 0 C0.845625 0.495 1.69125 0.99 2.5625 1.5 C2.8925 0.51 3.2225 -0.48 3.5625 -1.5 C4.5625 -0.5 4.5625 -0.5 4.66015625 1.78515625 C4.64855469 2.70167969 4.63695312 3.61820312 4.625 4.5625 C4.61597656 5.48160156 4.60695313 6.40070313 4.59765625 7.34765625 C4.58605469 8.05792969 4.57445312 8.76820312 4.5625 9.5 C3.9025 9.5 3.2425 9.5 2.5625 9.5 C2.1603125 7.7984375 2.1603125 7.7984375 1.75 6.0625 C1.358125 4.886875 0.96625 3.71125 0.5625 2.5 C-2.96744613 1.32335129 -5.73205413 1.30149397 -9.4375 1.5 C-10.4275 2.16 -11.4175 2.82 -12.4375 3.5 C-12.7675 2.18 -13.0975 0.86 -13.4375 -0.5 C-8.53107516 -2.13547495 -4.75572976 -2.07522753 0 0 Z " fill="#5A5A5A" transform="translate(684.4375,101.5)"/>
<path d="M0 0 C0.99 0.33 1.98 0.66 3 1 C4.1875 3.5625 4.1875 3.5625 5 6 C8.35458155 6.76522801 8.35458155 6.76522801 12 7 C13.96431405 5.70735301 13.96431405 5.70735301 15 4 C15.33 5.32 15.66 6.64 16 8 C10.92399953 11.38400032 5.81484349 9.93037496 0 9 C0 6.03 0 3.06 0 0 Z " fill="#5C5C5C" transform="translate(564,81)"/>
<path d="M0 0 C0.66 0 1.32 0 2 0 C1.67 2.97 1.34 5.94 1 9 C-6.26 9 -13.52 9 -21 9 C-20.67 8.34 -20.34 7.68 -20 7 C-19.43152344 7.01160156 -18.86304688 7.02320313 -18.27734375 7.03515625 C-11.06364259 7.18818969 -11.06364259 7.18818969 -4 6 C-1.66585353 3.04150073 -1.66585353 3.04150073 0 0 Z " fill="#535353" transform="translate(460,155)"/>
<path d="M0 0 C2.97 0 5.94 0 9 0 C9 0.66 9 1.32 9 2 C8.57074219 2.38800781 8.14148438 2.77601562 7.69921875 3.17578125 C5.25831705 5.79624353 4.14183678 8.9150339 2.8125 12.1875 C2.53986328 12.84169922 2.26722656 13.49589844 1.98632812 14.16992188 C1.31760202 15.77721092 0.65790075 17.38824962 0 19 C-0.66 18.67 -1.32 18.34 -2 18 C-1.80664062 17.43152344 -1.61328125 16.86304687 -1.4140625 16.27734375 C0.18136423 11.54635062 1.66900586 6.81205575 3 2 C2.01 1.67 1.02 1.34 0 1 C0 0.67 0 0.34 0 0 Z " fill="#555555" transform="translate(501,64)"/>
<path d="M0 0 C0.66 0 1.32 0 2 0 C2 3.3 2 6.6 2 10 C1.01 9.34 0.02 8.68 -1 8 C-1.825 8.515625 -2.65 9.03125 -3.5 9.5625 C-7.98923493 11.40629292 -10.29648165 10.89204658 -15 10 C-12.58707195 7.58707195 -11.85882638 7.76572986 -8.5625 7.625 C-4.88216606 7.34898002 -4.88216606 7.34898002 -2 5.125 C-0.89936401 2.89445494 -0.89936401 2.89445494 0 0 Z " fill="#545454" transform="translate(687,117)"/>
<path d="M0 0 C2.375 1 2.375 1 4 2 C4.33 1.34 4.66 0.68 5 0 C6 1 6 1 6.0625 4.5625 C6.041875 5.696875 6.02125 6.83125 6 8 C3 7 3 7 1.625 4.9375 C0.13056566 2.69436512 0.13056566 2.69436512 -2.6875 2.75 C-3.450625 2.8325 -4.21375 2.915 -5 3 C-5.66 4.32 -6.32 5.64 -7 7 C-7.66 5.35 -8.32 3.7 -9 2 C-5.51195905 -0.32536063 -4.09859246 -0.33457898 0 0 Z " fill="#616161" transform="translate(654,100)"/>
<path d="M0 0 C8.57142857 -0.28571429 8.57142857 -0.28571429 12 2 C12.99 1.34 13.98 0.68 15 0 C15 3.63 15 7.26 15 11 C14.34 11 13.68 11 13 11 C12.71125 9.906875 12.4225 8.81375 12.125 7.6875 C10.9882915 4.92132267 10.32864463 4.15347334 7.57421875 2.8671875 C5.0603014 2.13470239 2.5685767 1.50600479 0 1 C0 0.67 0 0.34 0 0 Z " fill="#535353" transform="translate(611,100)"/>
<path d="M0 0 C0.33 0 0.66 0 1 0 C1.09765625 6.15234375 1.09765625 6.15234375 1 8 C0 9 0 9 -2.04125977 9.11352539 C-2.91580811 9.10828857 -3.79035645 9.10305176 -4.69140625 9.09765625 C-5.63564453 9.09443359 -6.57988281 9.09121094 -7.55273438 9.08789062 C-8.54595703 9.07951172 -9.53917969 9.07113281 -10.5625 9.0625 C-11.55958984 9.05798828 -12.55667969 9.05347656 -13.58398438 9.04882812 C-16.05604849 9.03700007 -18.52799518 9.02051849 -21 9 C-21 8.67 -21 8.34 -21 8 C-19.96359375 7.97421875 -18.9271875 7.9484375 -17.859375 7.921875 C-16.48954199 7.86558049 -15.11975195 7.80823345 -13.75 7.75 C-13.06808594 7.73582031 -12.38617187 7.72164063 -11.68359375 7.70703125 C-8.29183477 7.54238276 -6.33813019 7.26647346 -3.640625 5.140625 C-2.3633323 3.47406214 -1.16472624 1.74708935 0 0 Z " fill="#686868" transform="translate(532,82)"/>
<path d="M0 0 C6.6 0 13.2 0 20 0 C20 2.31 20 4.62 20 7 C19.34 7 18.68 7 18 7 C17.73896484 6.02933594 17.73896484 6.02933594 17.47265625 5.0390625 C16.74369141 4.02972656 16.74369141 4.02972656 16 3 C13.36378916 2.58706345 11.07813381 2.39461474 8.4375 2.375 C5.93504833 2.32878667 3.49877302 2.20651017 1 2 C0.67 1.34 0.34 0.68 0 0 Z " fill="#828282" transform="translate(439,137)"/>
<path d="M0 0 C0.66 0 1.32 0 2 0 C2 3.3 2 6.6 2 10 C1.01 9.34 0.02 8.68 -1 8 C-1.886875 8.515625 -2.77375 9.03125 -3.6875 9.5625 C-7.20023331 11.0868937 -8.44706507 11.14947895 -12 10 C-12 9.67 -12 9.34 -12 9 C-11.07767578 8.77957031 -11.07767578 8.77957031 -10.13671875 8.5546875 C-4.60212048 7.07960854 -4.60212048 7.07960854 -0.9375 2.8125 C-0.628125 1.884375 -0.31875 0.95625 0 0 Z " fill="#595959" transform="translate(624,117)"/>
<path d="M0 0 C1.23556641 0.01740234 1.23556641 0.01740234 2.49609375 0.03515625 C3.32238281 0.04417969 4.14867187 0.05320312 5 0.0625 C5.63808594 0.07410156 6.27617188 0.08570312 6.93359375 0.09765625 C6.60359375 1.08765625 6.27359375 2.07765625 5.93359375 3.09765625 C4.61359375 3.42765625 3.29359375 3.75765625 1.93359375 4.09765625 C1.93359375 9.37765625 1.93359375 14.65765625 1.93359375 20.09765625 C1.27359375 19.43765625 0.61359375 18.77765625 -0.06640625 18.09765625 C-0.04892737 15.50495642 0.07127967 13.04514085 0.30859375 10.47265625 C0.3653125 9.76625 0.42203125 9.05984375 0.48046875 8.33203125 C0.62200296 6.58644264 0.77656762 4.84191952 0.93359375 3.09765625 C-0.38640625 2.43765625 -1.70640625 1.77765625 -3.06640625 1.09765625 C-2.06640625 0.09765625 -2.06640625 0.09765625 0 0 Z " fill="#838383" transform="translate(593.06640625,99.90234375)"/>
<path d="M0 0 C3.3 0 6.6 0 10 0 C10 0.66 10 1.32 10 2 C8.35 2.66 6.7 3.32 5 4 C5 9.28 5 14.56 5 20 C4.34 19.34 3.68 18.68 3 18 C3.01747888 15.40730017 3.13768592 12.9474846 3.375 10.375 C3.43171875 9.66859375 3.4884375 8.9621875 3.546875 8.234375 C3.68840921 6.48878639 3.84297387 4.74426327 4 3 C2.68 2.67 1.36 2.34 0 2 C0 1.34 0 0.68 0 0 Z " fill="#818181" transform="translate(475,100)"/>
<path d="M0 0 C3.29159316 -0.05790353 6.58305603 -0.09356261 9.875 -0.125 C10.81214844 -0.14175781 11.74929688 -0.15851563 12.71484375 -0.17578125 C13.61074219 -0.18222656 14.50664062 -0.18867187 15.4296875 -0.1953125 C16.25710449 -0.20578613 17.08452148 -0.21625977 17.93701172 -0.22705078 C20 0 20 0 22 2 C21.625 5.125 21.625 5.125 21 8 C20.34 8 19.68 8 19 8 C18.71125 7.38125 18.4225 6.7625 18.125 6.125 C17.06279958 3.86674235 17.06279958 3.86674235 15 2 C12.43083343 1.69400937 9.95241616 1.48912913 7.375 1.375 C6.66859375 1.33632812 5.9621875 1.29765625 5.234375 1.2578125 C3.49001476 1.16352276 1.74504309 1.08067109 0 1 C0 0.67 0 0.34 0 0 Z " fill="#8C8C8C" transform="translate(496,100)"/>
<path d="M0 0 C0.680625 -0.01417969 1.36125 -0.02835937 2.0625 -0.04296875 C4 0.1875 4 0.1875 7 2.1875 C6.34 2.8475 5.68 3.5075 5 4.1875 C4.67 3.8575 4.34 3.5275 4 3.1875 C-1.87646031 2.72418563 -1.87646031 2.72418563 -7 5.1875 C-7.66 5.1875 -8.32 5.1875 -9 5.1875 C-10.36161311 6.14863866 -11.69855198 7.14634159 -13 8.1875 C-11.60415208 4.81420085 -10.07634389 3.14517338 -7 1.1875 C-4.35559361 0.3060312 -2.71939248 0.02575182 0 0 Z " fill="#525252" transform="translate(707,99.8125)"/>
<path d="M0 0 C2.97 0 5.94 0 9 0 C9 0.66 9 1.32 9 2 C8.01 2 7.02 2 6 2 C5.67 7.94 5.34 13.88 5 20 C4.67 20 4.34 20 4 20 C3.67 14.06 3.34 8.12 3 2 C2.01 2 1.02 2 0 2 C0 1.34 0 0.68 0 0 Z " fill="#343434" transform="translate(429,64)"/>
<path d="M0 0 C0.66 0 1.32 0 2 0 C2.350625 0.94875 2.70125 1.8975 3.0625 2.875 C4.7714341 6.34336062 4.7714341 6.34336062 8.6875 7.375 C9.780625 7.58125 10.87375 7.7875 12 8 C11.67 8.66 11.34 9.32 11 10 C10.071875 9.835 9.14375 9.67 8.1875 9.5 C5.04378647 8.92251612 5.04378647 8.92251612 2 9 C1.34 9 0.68 9 0 9 C0 6.03 0 3.06 0 0 Z " fill="#494949" transform="translate(644,118)"/>
<path d="M0 0 C0.99 0.33 1.98 0.66 3 1 C3.66 0.67 4.32 0.34 5 0 C5 2.64 5 5.28 5 8 C4.34 8 3.68 8 3 8 C2.566875 7.175 2.13375 6.35 1.6875 5.5 C1.130625 4.675 0.57375 3.85 0 3 C-2.88185107 2.5782657 -4.39722303 2.69861151 -7 4 C-7.33 3.01 -7.66 2.02 -8 1 C-5.2540274 -0.3729863 -3.0410953 -0.12412634 0 0 Z " fill="#565656" transform="translate(421,100)"/>
<path d="M0 0 C0.89203125 0.11085937 1.7840625 0.22171875 2.703125 0.3359375 C3.37859375 0.43132813 4.0540625 0.52671875 4.75 0.625 C4.75 3.265 4.75 5.905 4.75 8.625 C3.20720079 7.08220079 1.74931891 5.62409189 0.4375 3.875 C-1.31782458 2.2686031 -1.31782458 2.2686031 -4.3125 3.0625 C-5.281875 3.248125 -6.25125 3.43375 -7.25 3.625 C-7.91 2.965 -8.57 2.305 -9.25 1.625 C-5.9353333 -0.40407167 -3.8184021 -0.50242133 0 0 Z " fill="#4C4C4C" transform="translate(575.25,63.375)"/>
<path d="M0 0 C2.27057377 -0.05398987 4.54151288 -0.09278742 6.8125 -0.125 C8.07707031 -0.14820312 9.34164062 -0.17140625 10.64453125 -0.1953125 C14 0 14 0 17 2 C16.01 2.66 15.02 3.32 14 4 C10.8125 3.125 10.8125 3.125 8 2 C8 5.63 8 9.26 8 13 C7.67 13 7.34 13 7 13 C7 9.04 7 5.08 7 1 C4.69 1 2.38 1 0 1 C0 0.67 0 0.34 0 0 Z " fill="#7F7F7F" transform="translate(518,100)"/>
<path d="M0 0 C1 3 1 3 1 7 C1.66 7.66 2.32 8.32 3 9 C2 10 2 10 -1.5625 10.0625 C-2.696875 10.041875 -3.83125 10.02125 -5 10 C-5 9.01 -5 8.02 -5 7 C-4.34 7 -3.68 7 -3 7 C-2.690625 6.030625 -2.38125 5.06125 -2.0625 4.0625 C-1 1 -1 1 0 0 Z " fill="#3A3A3A" transform="translate(630,81)"/>
<path d="M0 0 C0.33 1.32 0.66 2.64 1 4 C1.66 4 2.32 4 3 4 C2.34 7.96 1.68 11.92 1 16 C-1 14 -1 14 -1.1875 10.25 C-1.1047681 6.76253238 -0.68505673 3.42528367 0 0 Z " fill="#EC6C71" transform="translate(92,160)"/>
<path d="M0 0 C3.77528304 1.25842768 4.10667045 2.62493429 6 6 C6.66 6.66 7.32 7.32 8 8 C5 9 5 9 2 9 C1.34 8.67 0.68 8.34 0 8 C0 5.36 0 2.72 0 0 Z " fill="#636363" transform="translate(410,118)"/>
<path d="M0 0 C0.66 0.33 1.32 0.66 2 1 C2 3.97 2 6.94 2 10 C1.34 10 0.68 10 0 10 C-0.33 8.68 -0.66 7.36 -1 6 C-2.65 6 -4.3 6 -6 6 C-6 5.34 -6 4.68 -6 4 C-4.35 4 -2.7 4 -1 4 C-0.67 2.68 -0.34 1.36 0 0 Z " fill="#5C5C5C" transform="translate(510,108)"/>
<path d="M0 0 C0.33 0 0.66 0 1 0 C1 2.64 1 5.28 1 8 C2.98 8 4.96 8 7 8 C7 7.01 7 6.02 7 5 C7.66 5 8.32 5 9 5 C9 7.97 9 10.94 9 14 C8.34 14 7.68 14 7 14 C6.67 12.35 6.34 10.7 6 9 C4.02 9 2.04 9 0 9 C0 6.03 0 3.06 0 0 Z " fill="#656565" transform="translate(518,67)"/>
<path d="M0 0 C0.86625 0.3403125 0.86625 0.3403125 1.75 0.6875 C1.75 1.6775 1.75 2.6675 1.75 3.6875 C1.13125 3.790625 0.5125 3.89375 -0.125 4 C-2.61526484 4.56275373 -2.61526484 4.56275373 -4.25 7.6875 C-5.24 7.6875 -6.23 7.6875 -7.25 7.6875 C-7.25 7.0275 -7.25 6.3675 -7.25 5.6875 C-6.26 5.6875 -5.27 5.6875 -4.25 5.6875 C-4.25 5.0275 -4.25 4.3675 -4.25 3.6875 C-4.91 3.3575 -5.57 3.0275 -6.25 2.6875 C-2.80384615 -0.38942308 -2.80384615 -0.38942308 0 0 Z " fill="#ED7176" transform="translate(177.25,98.3125)"/>
<path d="M0 0 C0.66 0.33 1.32 0.66 2 1 C0.63016497 4.16115776 0.0109362 4.9927092 -3 7 C-5.48046875 7.1953125 -5.48046875 7.1953125 -8.1875 7.125 C-9.08855469 7.10695312 -9.98960937 7.08890625 -10.91796875 7.0703125 C-11.60503906 7.04710937 -12.29210937 7.02390625 -13 7 C-9.80230264 4.86820176 -7.52783506 4.36753633 -3.83984375 3.66015625 C-1.61509461 3.06811776 -1.61509461 3.06811776 0 0 Z " fill="#4C4C4C" transform="translate(526,157)"/>
<path d="M0 0 C0.66 0 1.32 0 2 0 C2 3.3 2 6.6 2 10 C1.34 9.67 0.68 9.34 0 9 C0 8.01 0 7.02 0 6 C-1.98 6 -3.96 6 -6 6 C-6 5.34 -6 4.68 -6 4 C-4.35 3.67 -2.7 3.34 -1 3 C-0.67 2.01 -0.34 1.02 0 0 Z " fill="#676767" transform="translate(453,145)"/>
<path d="M0 0 C0.33 0 0.66 0 1 0 C1.06058594 1.26457031 1.12117187 2.52914062 1.18359375 3.83203125 C1.26800904 5.49219871 1.35265655 7.15235437 1.4375 8.8125 C1.47681641 9.64587891 1.51613281 10.47925781 1.55664062 11.33789062 C1.59853516 12.14033203 1.64042969 12.94277344 1.68359375 13.76953125 C1.72025146 14.50792236 1.75690918 15.24631348 1.79467773 16.00708008 C1.94842141 18.207495 1.94842141 18.207495 3 21 C1.35 21 -0.3 21 -2 21 C-1.67 20.34 -1.34 19.68 -1 19 C-0.84932786 17.5534758 -0.75138964 16.1012066 -0.68359375 14.6484375 C-0.64169922 13.79765625 -0.59980469 12.946875 -0.55664062 12.0703125 C-0.51732422 11.18085937 -0.47800781 10.29140625 -0.4375 9.375 C-0.39431641 8.4778125 -0.35113281 7.580625 -0.30664062 6.65625 C-0.20043139 4.43765717 -0.09838806 2.2189512 0 0 Z " fill="#0E0E0E" transform="translate(576,105)"/>
<path d="M0 0 C0.99 0.66 1.98 1.32 3 2 C3 2.66 3 3.32 3 4 C0.03 4.66 -2.94 5.32 -6 6 C-6 5.01 -6 4.02 -6 3 C-4.02 2.01 -2.04 1.02 0 0 Z " fill="#5A5A5A" transform="translate(488,164)"/>
<path d="M0 0 C0.99386719 0.00902344 1.98773438 0.01804688 3.01171875 0.02734375 C4.15060547 0.04474609 4.15060547 0.04474609 5.3125 0.0625 C2.85723878 2.51776122 1.70620182 2.47707598 -1.6875 2.8125 C-3.0178125 2.95945313 -3.0178125 2.95945313 -4.375 3.109375 C-6.6875 3.0625 -6.6875 3.0625 -8.6875 1.0625 C-5.53819107 0.01273036 -3.29935544 -0.03881595 0 0 Z " fill="#5E5E5E" transform="translate(488.6875,136.9375)"/>
<path d="M0 0 C0.66 0.33 1.32 0.66 2 1 C2 4.3 2 7.6 2 11 C1.34 11 0.68 11 0 11 C-1.28571429 3.57142857 -1.28571429 3.57142857 0 0 Z " fill="#4F4F4F" transform="translate(687,100)"/>
<path d="M0 0 C1.77049689 -0.05410687 3.54146849 -0.09284119 5.3125 -0.125 C6.29863281 -0.14820313 7.28476562 -0.17140625 8.30078125 -0.1953125 C11 0 11 0 14 2 C10.59598052 3.13732426 8.22543336 2.83989957 4.75 2.0625 C3.85796875 1.86785156 2.9659375 1.67320312 2.046875 1.47265625 C1.37140625 1.31667969 0.6959375 1.16070312 0 1 C0 0.67 0 0.34 0 0 Z " fill="#5E5E5E" transform="translate(582,137)"/>
<path d="M0 0 C0.66 0 1.32 0 2 0 C2 3.3 2 6.6 2 10 C0.68 8.68 -0.64 7.36 -2 6 C-1.34 4.02 -0.68 2.04 0 0 Z " fill="#3D3D3D" transform="translate(687,117)"/>
<path d="M0 0 C0.66 0 1.32 0 2 0 C2 3.3 2 6.6 2 10 C1.01 9.01 0.02 8.02 -1 7 C-0.6875 3.3125 -0.6875 3.3125 0 0 Z " fill="#464646" transform="translate(624,117)"/>
<path d="M0 0 C1.32 0 2.64 0 4 0 C4 0.66 4 1.32 4 2 C3.34 2 2.68 2 2 2 C2 6.95 2 11.9 2 17 C1.67 17 1.34 17 1 17 C0.67 11.39 0.34 5.78 0 0 Z " fill="#3B3B3B" transform="translate(461,65)"/>
<path d="M0 0 C-0.33 0.66 -0.66 1.32 -1 2 C-1.639375 2.12375 -2.27875 2.2475 -2.9375 2.375 C-5.19851273 2.80939427 -5.19851273 2.80939427 -6.25 5.0625 C-6.4975 5.701875 -6.745 6.34125 -7 7 C-7.66 5.35 -8.32 3.7 -9 2 C-5.5647952 -0.29013653 -4.014669 -0.17842973 0 0 Z " fill="#6F6F6F" transform="translate(654,100)"/>
<path d="M0 0 C0.66 0.99 1.32 1.98 2 3 C1.3125 5.625 1.3125 5.625 0 8 C-0.99 8.33 -1.98 8.66 -3 9 C-3.66 8.34 -4.32 7.68 -5 7 C-3.68 6.67 -2.36 6.34 -1 6 C-0.67 4.02 -0.34 2.04 0 0 Z " fill="#6E6E6E" transform="translate(432,81)"/>
<path d="M0 0 C1.99954746 -0.04254356 4.00041636 -0.04080783 6 0 C7 1 7 1 7.0625 3.5625 C7.041875 4.366875 7.02125 5.17125 7 6 C6.34 6 5.68 6 5 6 C4.731875 5.38125 4.46375 4.7625 4.1875 4.125 C3.04443152 1.7004767 3.04443152 1.7004767 0 0 Z " fill="#343434" transform="translate(452,138)"/>
<path d="M0 0 C0 0.66 0 1.32 0 2 C-0.94875 1.979375 -1.8975 1.95875 -2.875 1.9375 C-5.90666283 1.77448174 -5.90666283 1.77448174 -8 3 C-8.66 2.34 -9.32 1.68 -10 1 C-6.42181037 -1.33958553 -4.07775191 -0.9267618 0 0 Z " fill="#5D5D5D" transform="translate(576,64)"/>
<path d="M0 0 C0.66 0.99 1.32 1.98 2 3 C0.625 6.6875 0.625 6.6875 -1 10 C-1.66 9.67 -2.32 9.34 -3 9 C-2.01 6.03 -1.02 3.06 0 0 Z " fill="#6C6C6C" transform="translate(440,104)"/>
<path d="M0 0 C1.65 0 3.3 0 5 0 C5 1.98 5 3.96 5 6 C4.34 6 3.68 6 3 6 C2.87625 5.195625 2.7525 4.39125 2.625 3.5625 C2.315625 2.2940625 2.315625 2.2940625 2 1 C1.34 0.67 0.68 0.34 0 0 Z " fill="#353535" transform="translate(568,138)"/>
<path d="M0 0 C0.66 0 1.32 0 2 0 C1.67 0.99 1.34 1.98 1 3 C2.32 3.66 3.64 4.32 5 5 C2.69 5 0.38 5 -2 5 C-2 4.01 -2 3.02 -2 2 C-1.34 2 -0.68 2 0 2 C0 1.34 0 0.68 0 0 Z " fill="#727272" transform="translate(627,86)"/>
<path d="M0 0 C1.32 0.66 2.64 1.32 4 2 C2.71034824 3.37562854 1.37310707 4.70766393 0 6 C-0.66 6 -1.32 6 -2 6 C-1.34 4.02 -0.68 2.04 0 0 Z " fill="#EF8186" transform="translate(127,78)"/>
<path d="" fill="#F9D3D3" transform="translate(0,0)"/>
</svg>
